<svg xmlns="http://www.w3.org/2000/svg" viewBox="0 0 900 300" width="100%" font-family="system-ui,-apple-system,sans-serif"><defs><linearGradient id="bg" x1="0" y1="0" x2="0" y2="1"><stop offset="0" stop-color="#161b22"/><stop offset="1" stop-color="#0d1117"/></linearGradient><linearGradient id="fill" x1="0" y1="0" x2="0" y2="1"><stop offset="0" stop-color="#f85149" stop-opacity="0.35"/><stop offset="1" stop-color="#f85149" stop-opacity="0"/></linearGradient></defs><rect x="1" y="1" width="898" height="298" rx="16" fill="url(#bg)" stroke="#30363d"/><circle cx="40" cy="42" r="6" fill="#3fb950"/><text x="56" y="47" font-size="14" font-weight="700" fill="#e6edf3" letter-spacing="2">LIVE</text><text x="98" y="47" font-size="14" fill="#7d8590" letter-spacing="1">· MR. SCROOGE — REAL MONEY</text><text x="862" y="47" font-size="12" fill="#7d8590" text-anchor="end">NAV $1,818.35</text><text x="38" y="118" font-size="66" font-weight="800" fill="#f85149">−$614.46</text><text x="348" y="118" font-size="26" font-weight="700" fill="#f85149">▼ -24.58%</text><text x="40" y="140" font-size="12" fill="#7d8590">config-to-date · realized + open, since 2026-07-29</text><text x="40" y="172" font-family="system-ui,-apple-system,sans-serif" font-size="12" fill="#7d8590" letter-spacing="1">REALIZED</text><text x="40" y="197" font-family="system-ui,-apple-system,sans-serif" font-size="21" font-weight="700" fill="#f85149">−$442.96</text><text x="250" y="172" font-family="system-ui,-apple-system,sans-serif" font-size="12" fill="#7d8590" letter-spacing="1">TRADES</text><text x="250" y="197" font-family="system-ui,-apple-system,sans-serif" font-size="21" font-weight="700" fill="#e6edf3">375/462 green</text><text x="470" y="172" font-family="system-ui,-apple-system,sans-serif" font-size="12" fill="#7d8590" letter-spacing="1">OPEN</text><text x="470" y="197" font-family="system-ui,-apple-system,sans-serif" font-size="21" font-weight="700" fill="#e6edf3">8 (−$171.51)</text><text x="690" y="172" font-family="system-ui,-apple-system,sans-serif" font-size="12" fill="#7d8590" letter-spacing="1">WIN RATE</text><text x="690" y="197" font-family="system-ui,-apple-system,sans-serif" font-size="21" font-weight="700" fill="#e6edf3">81%</text><polygon points="40,268 40.0,210.5 43.2,210.5 43.2,208.5 44.4,208.5 44.4,208.4 46.1,208.4 46.1,208.2 46.1,208.2 46.1,208.0 46.3,208.0 46.3,209.6 47.7,209.6 47.7,211.3 47.8,211.3 47.8,213.0 47.9,213.0 47.9,214.5 47.9,214.5 47.9,215.9 50.5,215.9 50.5,215.7 50.5,215.7 50.5,215.5 55.8,215.5 55.8,215.2 57.5,215.2 57.5,214.9 58.2,214.9 58.2,214.5 58.4,214.5 58.4,214.2 58.9,214.2 58.9,213.7 58.9,213.7 58.9,215.3 59.0,215.3 59.0,214.2 59.9,214.2 59.9,214.0 60.2,214.0 60.2,213.6 60.2,213.6 60.2,212.8 61.1,212.8 61.1,212.6 61.6,212.6 61.6,214.2 61.6,214.2 61.6,216.2 62.9,216.2 62.9,218.1 63.7,218.1 63.7,217.7 64.2,217.7 64.2,217.3 64.8,217.3 64.8,216.8 64.9,216.8 64.9,216.5 64.9,216.5 64.9,218.8 67.1,218.8 67.1,220.4 69.8,220.4 69.8,222.0 71.7,222.0 71.7,221.8 76.8,221.8 76.8,221.6 80.4,221.6 80.4,220.6 80.4,220.6 80.4,220.3 80.4,220.3 80.4,219.4 80.5,219.4 80.5,218.9 80.5,218.9 80.5,216.3 80.6,216.3 80.6,215.0 81.0,215.0 81.0,214.1 81.0,214.1 81.0,213.4 81.1,213.4 81.1,213.2 81.1,213.2 81.1,212.4 81.3,212.4 81.3,211.5 81.3,211.5 81.3,211.0 81.4,211.0 81.4,210.7 81.5,210.7 81.5,213.0 81.5,213.0 81.5,215.7 81.5,215.7 81.5,218.5 81.5,218.5 81.5,221.3 81.6,221.3 81.6,219.7 81.7,219.7 81.7,219.4 81.8,219.4 81.8,219.3 81.9,219.3 81.9,218.8 82.0,218.8 82.0,220.4 82.0,220.4 82.0,219.5 82.0,219.5 82.0,219.4 82.1,219.4 82.1,219.1 82.1,219.1 82.1,220.7 82.1,220.7 82.1,222.3 82.2,222.3 82.2,222.1 82.3,222.1 82.3,222.2 82.3,222.2 82.3,221.9 82.3,221.9 82.3,221.6 82.4,221.6 82.4,221.0 82.4,221.0 82.4,220.9 82.4,220.9 82.4,220.6 82.7,220.6 82.7,222.2 82.7,222.2 82.7,222.0 84.0,222.0 84.0,223.6 84.1,223.6 84.1,225.2 84.2,225.2 84.2,224.3 84.2,224.3 84.2,223.7 84.3,223.7 84.3,223.4 84.5,223.4 84.5,225.5 85.4,225.5 85.4,224.8 85.8,224.8 85.8,224.6 86.6,224.6 86.6,224.3 126.3,224.3 126.3,225.5 128.4,225.5 128.4,225.3 130.0,225.3 130.0,224.4 130.5,224.4 130.5,224.2 131.4,224.2 131.4,224.0 134.3,224.0 134.3,223.6 134.3,223.6 134.3,223.4 134.7,223.4 134.7,222.0 135.1,222.0 135.1,221.8 135.6,221.8 135.6,220.5 136.1,220.5 136.1,220.3 139.5,220.3 139.5,219.8 139.5,219.8 139.5,219.6 139.7,219.6 139.7,219.4 139.7,219.4 139.7,219.2 139.7,219.2 139.7,218.5 139.8,218.5 139.8,218.3 140.0,218.3 140.0,218.1 140.0,218.1 140.0,217.9 140.0,217.9 140.0,217.6 140.2,217.6 140.2,217.4 140.3,217.4 140.3,217.0 140.3,217.0 140.3,216.8 140.8,216.8 140.8,216.6 140.8,216.6 140.8,216.2 140.8,216.2 140.8,216.0 141.3,216.0 141.3,215.8 144.1,215.8 144.1,215.4 145.2,215.4 145.2,217.1 145.3,217.1 145.3,216.9 145.3,216.9 145.3,218.6 145.5,218.6 145.5,220.1 146.6,220.1 146.6,221.8 148.0,221.8 148.0,223.5 149.8,223.5 149.8,222.9 154.3,222.9 154.3,222.3 163.7,222.3 163.7,228.2 178.8,228.2 178.8,228.0 179.3,228.0 179.3,230.3 181.7,230.3 181.7,230.1 184.6,230.1 184.6,235.8 191.8,235.8 191.8,235.6 191.8,235.6 191.8,234.6 200.1,234.6 200.1,236.1 200.5,236.1 200.5,235.1 203.0,235.1 203.0,234.9 213.1,234.9 213.1,234.7 213.9,234.7 213.9,234.4 214.9,234.4 214.9,234.2 215.5,234.2 215.5,233.9 216.9,233.9 216.9,233.4 217.0,233.4 217.0,235.6 217.0,235.6 217.0,242.4 217.1,242.4 217.1,244.4 217.1,244.4 217.1,251.2 219.8,251.2 219.8,251.0 221.6,251.0 221.6,250.8 222.8,250.8 222.8,250.6 223.2,250.6 223.2,250.1 223.2,250.1 223.2,249.8 223.5,249.8 223.5,249.6 264.2,249.6 264.2,249.4 271.6,249.4 271.6,249.2 277.5,249.2 277.5,253.0 277.5,253.0 277.5,253.5 277.5,253.5 277.5,254.0 277.5,254.0 277.5,254.3 277.5,254.3 277.5,254.3 277.5,254.3 277.5,255.2 277.8,255.2 277.8,255.0 279.3,255.0 279.3,254.9 281.3,254.9 281.3,254.7 285.6,254.7 285.6,254.6 286.6,254.6 286.6,254.5 287.3,254.5 287.3,254.2 288.5,254.2 288.5,253.5 290.6,253.5 290.6,253.4 290.6,253.4 290.6,253.4 296.1,253.4 296.1,253.2 297.0,253.2 297.0,253.0 306.3,253.0 306.3,252.9 312.0,252.9 312.0,252.7 312.3,252.7 312.3,252.6 314.5,252.6 314.5,252.4 314.5,252.4 314.5,252.2 314.7,252.2 314.7,252.0 316.2,252.0 316.2,251.8 316.4,251.8 316.4,251.6 319.1,251.6 319.1,251.3 329.2,251.3 329.2,251.0 330.4,251.0 330.4,250.7 332.8,250.7 332.8,250.5 334.2,250.5 334.2,250.3 334.3,250.3 334.3,250.1 334.5,250.1 334.5,249.9 334.9,249.9 334.9,249.8 335.4,249.8 335.4,249.2 335.4,249.2 335.4,249.0 336.3,249.0 336.3,249.4 336.5,249.4 336.5,249.3 342.9,249.3 342.9,249.1 344.2,249.1 344.2,249.0 350.1,249.0 350.1,248.6 352.9,248.6 352.9,248.1 352.9,248.1 352.9,247.6 352.9,247.6 352.9,247.3 353.5,247.3 353.5,247.8 353.5,247.8 353.5,249.3 353.7,249.3 353.7,249.2 353.7,249.2 353.7,249.1 355.9,249.1 355.9,249.0 356.2,249.0 356.2,249.0 356.4,249.0 356.4,248.9 356.8,248.9 356.8,248.8 357.6,248.8 357.6,248.3 357.6,248.3 357.6,248.3 357.6,248.3 357.6,248.1 357.6,248.1 357.6,248.0 357.6,248.0 357.6,248.0 359.0,248.0 359.0,247.9 404.7,247.9 404.7,249.5 410.2,249.5 410.2,249.4 411.6,249.4 411.6,249.4 413.2,249.4 413.2,249.1 416.2,249.1 416.2,249.8 416.4,249.8 416.4,249.8 416.8,249.8 416.8,249.6 417.4,249.6 417.4,250.2 417.5,250.2 417.5,250.5 418.3,250.5 418.3,250.6 418.5,250.6 418.5,250.5 418.5,250.5 418.5,250.5 422.1,250.5 422.1,250.4 424.5,250.4 424.5,250.4 425.0,250.4 425.0,250.2 425.0,250.2 425.0,250.2 425.3,250.2 425.3,250.0 426.2,250.0 426.2,249.7 427.8,249.7 427.8,249.5 432.6,249.5 432.6,249.0 432.6,249.0 432.6,248.7 433.1,248.7 433.1,248.6 433.1,248.6 433.1,248.4 433.2,248.4 433.2,248.3 433.7,248.3 433.7,248.0 435.2,248.0 435.2,247.8 435.7,247.8 435.7,247.6 435.7,247.6 435.7,247.4 435.7,247.4 435.7,247.0 437.0,247.0 437.0,246.8 442.8,246.8 442.8,246.7 442.8,246.7 442.8,246.0 442.8,246.0 442.8,245.4 442.8,245.4 442.8,245.2 445.7,245.2 445.7,245.2 447.7,245.2 447.7,244.8 448.5,244.8 448.5,244.7 449.0,244.7 449.0,244.5 451.1,244.5 451.1,244.4 451.2,244.4 451.2,244.3 451.2,244.3 451.2,244.1 451.3,244.1 451.3,243.9 451.4,243.9 451.4,243.8 455.3,243.8 455.3,243.7 455.3,243.7 455.3,243.6 461.7,243.6 461.7,243.4 461.9,243.4 461.9,243.4 465.3,243.4 465.3,243.3 465.6,243.3 465.6,243.1 468.0,243.1 468.0,244.9 468.5,244.9 468.5,245.4 469.6,245.4 469.6,245.3 470.3,245.3 470.3,245.0 470.3,245.0 470.3,244.9 472.0,244.9 472.0,244.6 473.9,244.6 473.9,244.5 476.4,244.5 476.4,244.5 487.3,244.5 487.3,246.1 487.3,246.1 487.3,246.7 487.4,246.7 487.4,247.3 488.1,247.3 488.1,247.2 488.8,247.2 488.8,247.0 488.9,247.0 488.9,246.9 490.1,246.9 490.1,246.7 490.3,246.7 490.3,246.5 490.3,246.5 490.3,246.3 490.3,246.3 490.3,246.0 491.8,246.0 491.8,245.8 491.9,245.8 491.9,245.7 491.9,245.7 491.9,245.3 492.4,245.3 492.4,245.1 493.1,245.1 493.1,245.0 536.3,245.0 536.3,245.1 536.3,245.1 536.3,245.6 536.4,245.6 536.4,245.6 536.5,245.6 536.5,245.7 536.6,245.7 536.6,246.4 537.2,246.4 537.2,246.0 538.7,246.0 538.7,245.8 539.8,245.8 539.8,245.6 543.9,245.6 543.9,245.4 544.2,245.4 544.2,245.2 544.3,245.2 544.3,245.0 544.4,245.0 544.4,244.9 544.5,244.9 544.5,244.7 545.0,244.7 545.0,244.5 545.3,244.5 545.3,244.5 546.7,244.5 546.7,244.3 549.3,244.3 549.3,244.1 549.5,244.1 549.5,243.9 549.6,243.9 549.6,243.8 552.8,243.8 552.8,243.7 555.4,243.7 555.4,243.5 558.1,243.5 558.1,243.4 559.7,243.4 559.7,243.3 560.4,243.3 560.4,243.3 562.2,243.3 562.2,243.1 563.1,243.1 563.1,242.9 563.8,242.9 563.8,242.5 564.9,242.5 564.9,242.4 566.1,242.4 566.1,242.2 567.3,242.2 567.3,242.0 568.8,242.0 568.8,241.7 568.8,241.7 568.8,241.4 569.5,241.4 569.5,241.2 569.5,241.2 569.5,241.0 574.7,241.0 574.7,240.9 580.0,240.9 580.0,240.5 580.0,240.5 580.0,240.2 583.0,240.2 583.0,240.0 587.8,240.0 587.8,240.0 588.2,240.0 588.2,239.8 588.7,239.8 588.7,239.6 588.8,239.6 588.8,239.5 588.8,239.5 588.8,239.4 589.0,239.4 589.0,238.8 589.0,238.8 589.0,238.4 589.4,238.4 589.4,237.7 591.1,237.7 591.1,237.2 591.1,237.2 591.1,236.6 592.1,236.6 592.1,236.4 594.5,236.4 594.5,236.1 597.1,236.1 597.1,235.5 598.4,235.5 598.4,235.4 599.2,235.4 599.2,235.2 606.5,235.2 606.5,235.0 606.7,235.0 606.7,234.6 606.8,234.6 606.8,234.5 607.3,234.5 607.3,234.4 607.5,234.4 607.5,234.2 607.5,234.2 607.5,234.1 607.9,234.1 607.9,233.7 607.9,233.7 607.9,233.6 608.0,233.6 608.0,233.2 608.0,233.2 608.0,233.2 608.0,233.2 608.0,233.1 608.1,233.1 608.1,233.0 608.1,233.0 608.1,232.7 609.3,232.7 609.3,232.5 610.0,232.5 610.0,232.3 611.8,232.3 611.8,232.0 611.8,232.0 611.8,231.9 615.1,231.9 615.1,231.7 616.5,231.7 616.5,231.5 618.5,231.5 618.5,231.1 618.6,231.1 618.6,230.9 621.4,230.9 621.4,230.5 624.0,230.5 624.0,230.1 625.2,230.1 625.2,229.9 626.4,229.9 626.4,229.7 628.0,229.7 628.0,229.5 628.0,229.5 628.0,228.8 628.0,228.8 628.0,228.4 628.1,228.4 628.1,227.4 628.4,227.4 628.4,228.7 628.4,228.7 628.4,232.5 628.5,232.5 628.5,232.1 628.7,232.1 628.7,231.4 628.8,231.4 628.8,231.0 628.8,231.0 628.8,230.3 629.7,230.3 629.7,233.1 629.9,233.1 629.9,236.9 631.0,236.9 631.0,240.8 633.5,240.8 633.5,242.1 675.4,242.1 675.4,241.9 675.4,241.9 675.4,241.7 676.0,241.7 676.0,241.6 677.1,241.6 677.1,241.3 681.3,241.3 681.3,240.9 681.8,240.9 681.8,240.4 681.8,240.4 681.8,240.2 685.4,240.2 685.4,239.8 686.2,239.8 686.2,239.6 686.6,239.6 686.6,240.5 686.7,240.5 686.7,241.6 686.9,241.6 686.9,241.0 686.9,241.0 686.9,240.6 687.1,240.6 687.1,240.3 687.2,240.3 687.2,239.8 687.3,239.8 687.3,239.6 687.3,239.6 687.3,239.3 687.3,239.3 687.3,239.7 689.3,239.7 689.3,239.4 692.0,239.4 692.0,239.0 695.9,239.0 695.9,238.8 700.2,238.8 700.2,238.4 715.5,238.4 715.5,241.9 718.3,241.9 718.3,243.2 719.0,243.2 719.0,244.4 719.9,244.4 719.9,247.5 720.8,247.5 720.8,247.3 720.9,247.3 720.9,250.8 721.2,250.8 721.2,254.3 722.4,254.3 722.4,257.9 724.1,257.9 724.1,257.5 725.2,257.5 725.2,256.3 725.2,256.3 725.2,255.1 725.2,255.1 725.2,254.0 725.2,254.0 725.2,252.9 725.2,252.9 725.2,252.5 725.2,252.5 725.2,252.2 725.6,252.2 725.6,251.7 725.6,251.7 725.6,251.1 726.5,251.1 726.5,251.0 733.9,251.0 733.9,250.6 735.9,250.6 735.9,250.1 737.7,250.1 737.7,249.5 737.7,249.5 737.7,249.1 738.8,249.1 738.8,248.7 739.1,248.7 739.1,247.5 739.1,247.5 739.1,246.9 739.5,246.9 739.5,246.5 739.5,246.5 739.5,246.1 739.5,246.1 739.5,245.5 740.4,245.5 740.4,245.1 743.9,245.1 743.9,244.7 743.9,244.7 743.9,244.1 743.9,244.1 743.9,244.0 744.0,244.0 744.0,243.6 744.3,243.6 744.3,243.4 744.3,243.4 744.3,243.0 744.9,243.0 744.9,242.5 745.9,242.5 745.9,242.4 746.0,242.4 746.0,242.1 747.0,242.1 747.0,241.7 749.4,241.7 749.4,241.4 749.6,241.4 749.6,241.2 753.2,241.2 753.2,240.9 759.8,240.9 759.8,240.4 762.4,240.4 762.4,240.1 763.4,240.1 763.4,238.8 763.4,238.8 763.4,238.2 764.1,238.2 764.1,237.5 764.3,237.5 764.3,236.3 766.2,236.3 766.2,235.9 809.5,235.9 809.5,237.3 809.7,237.3 809.7,239.6 809.7,239.6 809.7,241.4 809.8,241.4 809.8,244.1 811.3,244.1 811.3,243.9 812.1,243.9 812.1,243.8 812.2,243.8 812.2,243.4 818.3,243.4 818.3,242.9 818.5,242.9 818.5,241.9 818.5,241.9 818.5,241.4 818.6,241.4 818.6,240.9 822.7,240.9 822.7,242.3 822.8,242.3 822.8,243.2 825.2,243.2 825.2,244.2 825.6,244.2 825.6,244.1 830.1,244.1 830.1,243.9 833.5,243.9 833.5,243.2 836.3,243.2 836.3,242.7 840.0,242.7 840.0,242.4 841.9,242.4 841.9,242.3 842.4,242.3 842.4,241.3 843.2,241.3 843.2,244.3 843.5,244.3 843.5,243.5 843.7,243.5 843.7,243.0 845.0,243.0 845.0,242.4 851.3,242.4 851.3,242.0 856.0,242.0 856.0,241.5 859.1,241.5 859.1,241.1 860.0,241.1 860.0,241.1 860,268" fill="url(#fill)"/><polyline points="40.2,210.5 40.2,210.5 41.0,210.5 41.1,210.5 41.8,210.5 42.6,210.8 43.5,208.5 44.3,208.2 45.1,208.6 45.9,210.2 46.7,212.1 47.5,215.3 48.3,217.5 49.1,218.5 50.0,218.3 50.8,217.4 51.6,217.9 52.4,217.6 53.2,218.4 54.0,218.1 54.8,218.3 55.7,218.6 56.5,217.7 57.3,218.2 58.1,216.8 58.9,213.2 59.7,212.6 60.5,213.3 61.3,213.1 62.2,216.4 63.0,218.4 63.8,221.9 64.6,221.5 65.4,224.7 66.2,224.7 67.0,225.9 67.9,225.3 68.7,225.6 69.5,225.5 70.3,225.7 71.1,225.5 71.9,224.3 72.7,222.6 73.5,223.9 74.4,223.4 75.2,225.4 76.0,225.4 76.8,222.6 77.6,226.5 78.4,224.2 79.2,222.0 80.1,216.3 80.6,215.3 80.9,215.9 81.7,223.4 82.5,223.2 83.3,224.6 84.1,225.0 84.9,227.7 85.7,228.3 86.6,227.0 87.4,227.7 88.2,227.7 89.0,227.7 89.8,227.7 90.6,227.7 91.4,227.7 92.3,227.7 93.1,227.7 93.9,227.7 94.7,227.7 95.5,227.7 96.3,227.7 97.1,227.7 97.9,227.7 98.8,227.7 99.6,227.7 100.4,227.7 101.2,227.7 102.0,227.7 102.8,227.7 103.6,227.7 104.5,227.7 105.3,227.7 106.1,227.7 106.9,227.7 107.7,227.7 108.5,227.7 109.3,227.7 110.1,227.7 111.0,227.7 111.8,227.7 112.6,227.7 113.4,227.7 114.2,227.7 115.0,227.7 115.8,227.7 116.7,227.7 117.5,227.7 118.3,227.7 119.1,227.7 119.9,227.7 120.7,227.7 121.5,227.7 122.3,227.7 123.2,227.7 124.0,227.7 124.8,227.7 125.6,227.7 126.4,231.8 127.2,233.7 128.0,231.0 128.9,229.6 129.7,226.9 130.5,225.4 131.3,225.1 132.1,225.5 132.9,225.6 133.7,226.3 134.5,223.1 135.4,221.2 136.2,220.7 137.0,220.9 137.8,221.7 138.6,222.0 139.4,220.8 140.2,218.1 141.1,216.8 141.9,218.1 142.7,218.1 143.5,218.2 144.3,219.2 145.1,220.6 145.9,223.5 146.7,223.5 147.6,223.6 148.4,224.6 149.2,224.3 150.0,227.6 150.8,227.5 151.6,228.2 152.4,228.3 153.3,227.6 154.1,228.9 154.9,228.8 155.7,230.5 156.5,233.7 157.3,235.3 158.1,234.4 158.9,235.6 159.8,239.8 160.6,236.1 161.4,238.0 162.2,239.1 163.0,238.8 163.8,242.0 164.6,242.5 165.5,242.3 166.3,242.4 167.1,243.1 167.9,242.7 168.7,241.5 169.5,240.5 170.3,245.0 171.1,245.4 172.0,242.6 172.8,244.1 173.6,242.5 174.4,242.8 175.2,242.5 176.0,242.5 176.8,243.7 177.6,245.8 178.5,244.6 179.3,248.9 180.1,247.5 180.9,245.8 181.7,245.3 182.5,248.8 183.3,248.4 184.2,246.9 185.0,248.9 185.8,247.8 186.6,248.2 187.4,248.0 188.2,247.8 189.0,247.9 189.8,246.4 190.7,244.3 191.5,243.1 192.3,243.6 193.1,243.3 193.9,243.1 194.7,244.6 195.5,243.0 196.4,244.0 197.2,244.0 198.0,242.1 198.8,243.6 199.6,243.0 200.4,239.5 201.2,241.0 202.0,242.3 202.9,242.1 203.7,241.4 204.5,243.0 205.3,241.2 206.1,241.1 206.9,240.5 207.7,240.8 208.6,239.7 209.4,238.9 210.2,239.3 211.0,240.2 211.8,240.8 212.6,242.4 213.4,242.0 214.2,242.8 215.1,242.1 215.9,241.9 216.7,243.4 217.5,256.8 218.3,256.4 219.1,257.6 219.9,258.0 220.8,257.7 221.6,257.2 222.4,258.0 223.2,256.8 224.0,257.2 224.8,257.2 225.6,257.2 226.4,257.2 227.3,257.2 228.1,257.2 228.9,257.2 229.7,257.2 230.5,257.2 231.3,257.2 232.1,257.2 233.0,257.2 233.8,257.2 234.6,257.2 235.4,257.2 236.2,257.2 237.0,257.2 237.8,257.2 238.6,257.2 239.5,257.2 240.3,257.2 241.1,257.2 241.9,257.2 242.7,257.2 243.5,257.2 244.3,257.2 245.2,257.2 246.0,257.2 246.8,257.2 247.6,257.2 248.4,257.2 249.2,257.2 250.0,257.2 250.8,257.2 251.7,257.2 252.5,257.2 253.3,257.2 254.1,257.2 254.9,257.2 255.7,257.2 256.5,257.2 257.4,257.2 258.2,257.2 259.0,257.2 259.8,257.2 260.6,257.2 261.4,257.2 262.2,257.2 263.0,257.8 263.9,256.5 264.7,256.2 265.5,256.8 266.3,255.1 267.1,255.9 267.9,254.9 268.7,255.0 269.6,255.7 270.4,256.5 271.2,256.1 272.0,257.4 272.8,256.7 273.6,255.7 274.4,255.8 275.2,255.4 276.1,255.3 276.9,256.5 277.7,256.2 278.5,256.2 279.3,256.4 280.1,256.6 280.9,256.6 281.8,256.2 282.6,257.0 283.4,256.4 284.2,256.5 285.0,256.4 285.8,256.6 286.6,256.6 287.4,256.3 288.3,256.6 289.1,255.5 289.9,255.5 290.7,255.4 291.5,256.1 292.3,255.8 293.1,255.7 294.0,255.5 294.8,255.7 295.6,255.4 296.4,255.3 297.2,255.6 298.0,255.6 298.8,255.4 299.6,255.4 300.5,255.4 301.3,255.5 302.1,255.8 302.9,255.7 303.7,255.6 304.5,255.6 305.3,255.5 306.1,255.7 307.0,255.8 307.8,256.0 308.6,256.2 309.4,256.0 310.2,255.9 311.0,256.0 311.8,256.0 312.7,256.0 313.5,256.0 314.3,256.0 315.1,255.5 315.9,255.2 316.7,254.5 317.5,255.2 318.3,255.5 319.2,255.9 320.0,256.0 320.8,256.0 321.6,256.7 322.4,256.1 323.2,255.8 324.0,255.7 324.9,255.5 325.7,256.0 326.5,256.3 327.3,256.4 328.1,255.7 328.9,256.3 329.7,256.4 330.5,255.4 331.4,255.2 332.2,254.2 333.0,253.6 333.8,254.4 334.6,252.8 335.4,251.7 336.2,252.0 337.1,252.7 337.9,252.7 338.7,252.4 339.5,252.4 340.3,252.7 341.1,253.1 341.9,252.6 342.7,252.2 343.6,252.0 344.4,252.2 345.2,252.1 346.0,252.3 346.8,252.3 347.6,252.3 348.4,252.3 349.3,252.2 350.1,251.8 350.9,252.1 351.7,252.4 352.5,252.1 353.3,251.7 354.1,251.9 354.9,252.8 355.8,252.8 356.6,252.4 357.4,251.0 358.2,250.9 359.0,251.2 359.8,251.2 360.6,251.7 361.5,251.7 362.3,251.7 363.1,251.7 363.9,251.7 364.7,251.7 365.5,251.7 366.3,251.7 367.1,251.7 368.0,251.7 368.8,251.7 369.6,251.7 370.4,251.7 371.2,251.7 372.0,251.7 372.8,251.7 373.7,251.7 374.5,251.7 375.3,251.7 376.1,251.7 376.9,251.7 377.7,251.7 378.5,251.7 379.3,251.7 380.2,251.7 381.0,251.7 381.8,251.7 382.6,251.7 383.4,251.7 384.2,251.7 385.0,251.7 385.9,251.7 386.7,251.7 387.5,251.7 388.3,251.7 389.1,251.7 389.9,251.7 390.7,251.7 391.5,251.7 392.4,251.7 393.2,251.7 394.0,251.7 394.8,251.7 395.6,251.7 396.4,251.7 397.2,251.7 398.1,251.7 398.9,251.7 399.7,252.0 400.5,251.2 401.3,252.1 402.1,252.9 402.9,253.4 403.7,253.7 404.6,253.4 405.4,254.2 406.2,254.0 407.0,254.5 407.8,255.8 408.6,256.0 409.4,255.6 410.3,255.5 411.1,255.3 411.9,255.2 412.7,254.8 413.5,255.2 414.3,253.8 415.1,253.8 415.9,253.7 416.8,252.7 417.6,252.4 418.4,252.5 419.2,252.7 420.0,252.6 420.8,252.8 421.6,252.8 422.4,252.7 423.3,252.3 424.1,252.4 424.9,252.0 425.7,252.6 426.5,252.9 427.3,252.9 428.1,252.8 429.0,252.4 429.8,252.9 430.6,253.1 431.4,252.9 432.2,252.4 433.0,251.3 433.8,249.9 434.6,250.0 435.5,249.8 436.3,249.8 437.1,249.5 437.9,249.9 438.7,249.8 439.5,249.7 440.3,249.7 441.2,249.1 442.0,250.5 442.8,249.1 443.6,247.5 444.4,247.5 445.2,247.4 446.0,247.3 446.8,247.4 447.7,246.9 448.5,246.9 449.3,246.6 450.1,246.7 450.9,246.5 451.7,246.3 452.5,247.5 453.4,247.5 454.2,247.8 455.0,247.1 455.8,247.4 456.6,248.1 457.4,248.3 458.2,248.6 459.0,248.8 459.9,248.3 460.7,248.4 461.5,247.6 462.3,247.8 463.1,247.9 463.9,248.2 464.7,247.3 465.6,247.9 466.4,248.4 467.2,250.8 468.0,252.5 468.8,253.6 469.6,250.7 470.4,249.6 471.2,250.5 472.1,247.8 472.9,249.4 473.7,248.2 474.5,247.6 475.3,247.6 476.1,248.3 476.9,248.4 477.8,248.8 478.6,249.3 479.4,250.2 480.2,250.6 481.0,250.0 481.8,251.0 482.6,251.8 483.4,251.1 484.3,250.9 485.1,251.1 485.9,251.9 486.7,251.5 487.5,255.2 488.3,253.7 489.1,253.7 490.0,252.7 490.8,251.0 491.6,249.6 492.4,248.0 493.2,249.3 494.0,248.6 494.8,249.0 495.6,248.8 496.5,248.9 497.3,248.6 498.1,248.6 498.9,248.6 499.7,248.6 500.5,248.6 501.3,248.6 502.2,248.6 503.0,248.6 503.8,248.6 504.6,248.6 505.4,248.6 506.2,248.6 507.0,248.6 507.8,248.6 508.7,248.6 509.5,248.6 510.3,248.6 511.1,248.6 511.9,248.6 512.7,248.6 513.5,248.6 514.4,248.6 515.2,248.6 516.0,248.6 516.8,248.6 517.6,248.6 518.4,248.6 519.2,248.6 520.0,248.6 520.9,248.6 521.7,248.6 522.5,248.6 523.3,248.6 524.1,248.6 524.9,248.6 525.7,248.6 526.6,248.6 527.4,248.6 528.2,248.6 529.0,248.6 529.8,248.6 530.6,248.6 531.4,248.6 532.2,248.6 533.1,248.6 533.9,248.6 534.7,248.6 535.5,248.6 536.3,248.8 537.1,248.5 537.9,248.2 538.8,249.5 539.6,249.1 540.4,249.2 541.2,248.5 542.0,248.4 542.8,248.2 543.6,248.5 544.4,246.7 545.3,246.6 546.1,246.7 546.9,246.4 547.7,246.9 548.5,247.2 549.3,246.5 550.1,246.0 550.9,246.2 551.8,246.6 552.6,246.6 553.4,246.1 554.2,245.9 555.0,246.1 555.8,246.9 556.6,246.5 557.5,246.6 558.3,246.6 559.1,246.3 559.9,245.6 560.7,245.1 561.5,245.0 562.3,245.3 563.1,245.5 564.0,245.6 564.8,245.2 565.6,247.1 566.4,245.9 567.2,245.0 568.0,245.4 568.8,245.7 569.7,245.4 570.5,244.9 571.3,244.8 572.1,244.6 572.9,245.9 573.7,246.4 574.5,247.1 575.3,246.5 576.2,246.0 577.0,246.2 577.8,246.0 578.6,245.3 579.4,246.6 580.2,245.0 581.0,244.8 581.9,244.4 582.7,244.0 583.5,245.5 584.3,246.2 585.1,245.3 585.9,245.1 586.7,244.5 587.5,245.4 588.4,242.2 589.2,240.5 590.0,241.7 590.8,238.9 591.6,239.2 592.4,238.5 593.2,238.9 594.1,239.0 594.9,239.6 595.7,238.9 596.5,238.4 597.3,240.2 598.1,239.4 598.9,238.6 599.7,238.9 600.6,238.9 601.4,239.0 602.2,239.5 603.0,239.7 603.8,238.8 604.6,239.0 605.4,238.9 606.3,238.9 607.1,237.6 607.9,235.8 608.7,235.6 609.5,235.7 610.3,236.0 611.1,235.8 611.9,235.5 612.8,235.2 613.6,234.9 614.4,235.7 615.2,234.7 616.0,234.4 616.8,234.8 617.6,234.9 618.5,234.9 619.3,234.6 620.1,235.6 620.9,235.3 621.7,235.5 622.5,235.5 623.3,234.7 624.1,234.9 625.0,234.8 625.8,233.0 626.6,234.2 627.4,234.5 628.2,241.2 629.0,242.8 629.8,249.6 630.7,250.6 631.5,253.1 632.3,252.5 633.1,251.2 633.9,252.8 634.7,252.8 635.5,252.8 637.2,252.8 638.0,252.8 638.8,252.8 639.6,252.8 640.4,252.8 641.2,252.8 642.0,252.8 642.9,252.8 643.7,252.8 644.5,252.8 645.3,252.8 646.1,252.8 651.0,252.8 651.8,252.8 652.6,252.8 653.4,252.8 654.2,252.8 655.1,252.8 655.9,252.8 656.7,252.8 657.5,252.8 658.3,252.8 659.1,252.8 659.9,252.8 660.7,252.8 661.6,252.8 662.4,252.8 663.2,252.8 664.0,252.8 664.8,252.8 665.6,252.8 666.4,252.8 667.3,252.8 668.1,252.8 668.9,252.8 669.7,252.8 670.5,252.8 671.3,252.8 672.1,252.8 672.9,254.2 673.8,253.1 674.6,251.6 675.4,249.7 676.2,250.7 677.0,248.6 677.8,248.6 678.6,248.6 679.4,249.9 680.3,250.3 681.1,250.5 681.9,247.9 682.7,247.7 683.5,246.4 684.3,247.6 685.1,246.7 686.0,247.1 686.8,245.2 687.6,243.8 688.4,243.5 689.2,243.1 690.0,242.8 690.8,242.8 691.6,243.2 692.5,243.3 693.3,243.0 694.1,243.2 694.9,243.0 695.7,244.1 696.5,245.8 697.3,245.6 698.2,246.6 699.0,245.2 699.8,245.1 700.6,245.6 701.4,250.2 702.2,248.0 703.0,248.6 703.8,249.1 704.7,249.5 705.5,249.8 706.3,246.2 707.1,251.6 707.9,253.8 708.7,254.0 709.5,254.5 710.4,252.5 711.2,253.6 712.0,254.9 712.8,252.3 713.6,252.9 714.4,255.0 715.2,256.6 716.0,257.7 716.9,257.4 717.7,259.1 718.5,259.4 719.3,257.3 720.1,261.3 720.9,262.9 721.7,266.7 722.6,268.0 723.4,266.6 724.2,263.8 725.0,265.4 725.8,256.2 726.6,256.5 727.4,256.5 728.2,257.5 729.1,257.8 729.9,258.1 730.7,257.0 731.5,259.1 732.3,258.7 733.1,258.2 733.9,258.2 734.8,257.1 735.6,257.5 736.4,255.0 737.2,255.2 738.0,255.3 738.8,254.4 739.6,251.7 740.4,252.5 741.3,253.7 742.1,253.5 742.9,255.0 743.7,254.4 744.5,255.8 745.3,251.5 746.1,253.5 747.0,256.3 747.8,257.2 748.6,257.2 749.4,254.7 750.2,255.0 751.0,257.0 751.8,254.4 752.6,254.9 753.5,254.2 754.3,254.8 755.1,257.6 755.9,256.5 756.7,257.7 757.5,257.2 758.3,257.8 759.2,254.2 760.0,252.6 760.8,252.5 761.6,252.8 762.4,253.2 763.2,253.8 764.0,249.6 764.8,249.1 765.7,250.9 766.5,251.4 767.3,251.0 768.1,249.7 768.9,250.5 769.7,250.9 770.5,251.3 771.4,251.3 772.2,251.3 773.0,251.3 773.8,251.3 774.6,251.3 775.4,251.3 776.2,251.3 777.0,251.3 777.9,251.3 778.7,251.3 779.5,251.3 780.3,251.3 781.1,251.3 781.9,251.3 782.7,251.3 783.6,251.3 784.4,251.3 785.2,251.3 786.0,251.3 786.8,251.3 787.6,251.3 788.4,251.3 789.2,251.3 790.1,251.3 790.9,251.3 791.7,251.3 792.5,251.3 793.3,251.3 794.1,251.3 794.9,251.3 795.8,251.3 796.6,251.3 797.4,251.3 798.2,251.3 799.0,251.3 799.8,251.3 800.6,251.3 801.4,251.3 802.3,251.3 803.1,251.3 803.9,251.3 804.7,251.3 805.5,251.3 806.3,251.3 807.1,251.3 807.9,251.3 808.8,251.3 809.6,251.6 810.4,251.1 811.2,250.5 812.0,250.5 812.8,250.8 813.6,252.7 814.5,252.1 815.3,251.5 816.1,251.2 816.9,251.8 817.7,252.3 818.5,248.5 819.3,249.0 820.1,249.1 821.0,248.9 821.8,249.5 822.6,248.7 823.4,249.0 824.2,249.6 825.0,249.5 825.8,249.5 826.7,249.8 827.5,249.7 828.3,250.1 829.1,251.3 829.9,249.9 830.7,249.5 831.5,249.8 832.3,250.1 833.2,249.9 834.0,251.0 834.8,253.1 835.6,252.3 836.4,253.7 837.2,255.8 838.0,257.9 838.9,256.9 839.7,256.4 840.5,254.7 841.3,256.1 842.1,252.6 842.9,254.3 843.7,254.1 844.5,254.1 845.4,251.7 846.2,252.0 847.0,252.0 847.8,253.4 848.6,253.8 849.4,252.9 850.2,253.0 851.1,252.1 851.9,250.8 852.7,252.2 853.5,253.0 854.3,253.9 855.1,253.3 855.9,252.1 856.7,251.4 857.6,254.2 858.4,255.0 859.2,258.9 860.0,257.5" fill="none" stroke="#58a6ff" stroke-width="1.4" opacity="0.9"/><polyline points="40.0,210.5 43.2,210.5 43.2,208.5 44.4,208.5 44.4,208.4 46.1,208.4 46.1,208.2 46.1,208.2 46.1,208.0 46.3,208.0 46.3,209.6 47.7,209.6 47.7,211.3 47.8,211.3 47.8,213.0 47.9,213.0 47.9,214.5 47.9,214.5 47.9,215.9 50.5,215.9 50.5,215.7 50.5,215.7 50.5,215.5 55.8,215.5 55.8,215.2 57.5,215.2 57.5,214.9 58.2,214.9 58.2,214.5 58.4,214.5 58.4,214.2 58.9,214.2 58.9,213.7 58.9,213.7 58.9,215.3 59.0,215.3 59.0,214.2 59.9,214.2 59.9,214.0 60.2,214.0 60.2,213.6 60.2,213.6 60.2,212.8 61.1,212.8 61.1,212.6 61.6,212.6 61.6,214.2 61.6,214.2 61.6,216.2 62.9,216.2 62.9,218.1 63.7,218.1 63.7,217.7 64.2,217.7 64.2,217.3 64.8,217.3 64.8,216.8 64.9,216.8 64.9,216.5 64.9,216.5 64.9,218.8 67.1,218.8 67.1,220.4 69.8,220.4 69.8,222.0 71.7,222.0 71.7,221.8 76.8,221.8 76.8,221.6 80.4,221.6 80.4,220.6 80.4,220.6 80.4,220.3 80.4,220.3 80.4,219.4 80.5,219.4 80.5,218.9 80.5,218.9 80.5,216.3 80.6,216.3 80.6,215.0 81.0,215.0 81.0,214.1 81.0,214.1 81.0,213.4 81.1,213.4 81.1,213.2 81.1,213.2 81.1,212.4 81.3,212.4 81.3,211.5 81.3,211.5 81.3,211.0 81.4,211.0 81.4,210.7 81.5,210.7 81.5,213.0 81.5,213.0 81.5,215.7 81.5,215.7 81.5,218.5 81.5,218.5 81.5,221.3 81.6,221.3 81.6,219.7 81.7,219.7 81.7,219.4 81.8,219.4 81.8,219.3 81.9,219.3 81.9,218.8 82.0,218.8 82.0,220.4 82.0,220.4 82.0,219.5 82.0,219.5 82.0,219.4 82.1,219.4 82.1,219.1 82.1,219.1 82.1,220.7 82.1,220.7 82.1,222.3 82.2,222.3 82.2,222.1 82.3,222.1 82.3,222.2 82.3,222.2 82.3,221.9 82.3,221.9 82.3,221.6 82.4,221.6 82.4,221.0 82.4,221.0 82.4,220.9 82.4,220.9 82.4,220.6 82.7,220.6 82.7,222.2 82.7,222.2 82.7,222.0 84.0,222.0 84.0,223.6 84.1,223.6 84.1,225.2 84.2,225.2 84.2,224.3 84.2,224.3 84.2,223.7 84.3,223.7 84.3,223.4 84.5,223.4 84.5,225.5 85.4,225.5 85.4,224.8 85.8,224.8 85.8,224.6 86.6,224.6 86.6,224.3 126.3,224.3 126.3,225.5 128.4,225.5 128.4,225.3 130.0,225.3 130.0,224.4 130.5,224.4 130.5,224.2 131.4,224.2 131.4,224.0 134.3,224.0 134.3,223.6 134.3,223.6 134.3,223.4 134.7,223.4 134.7,222.0 135.1,222.0 135.1,221.8 135.6,221.8 135.6,220.5 136.1,220.5 136.1,220.3 139.5,220.3 139.5,219.8 139.5,219.8 139.5,219.6 139.7,219.6 139.7,219.4 139.7,219.4 139.7,219.2 139.7,219.2 139.7,218.5 139.8,218.5 139.8,218.3 140.0,218.3 140.0,218.1 140.0,218.1 140.0,217.9 140.0,217.9 140.0,217.6 140.2,217.6 140.2,217.4 140.3,217.4 140.3,217.0 140.3,217.0 140.3,216.8 140.8,216.8 140.8,216.6 140.8,216.6 140.8,216.2 140.8,216.2 140.8,216.0 141.3,216.0 141.3,215.8 144.1,215.8 144.1,215.4 145.2,215.4 145.2,217.1 145.3,217.1 145.3,216.9 145.3,216.9 145.3,218.6 145.5,218.6 145.5,220.1 146.6,220.1 146.6,221.8 148.0,221.8 148.0,223.5 149.8,223.5 149.8,222.9 154.3,222.9 154.3,222.3 163.7,222.3 163.7,228.2 178.8,228.2 178.8,228.0 179.3,228.0 179.3,230.3 181.7,230.3 181.7,230.1 184.6,230.1 184.6,235.8 191.8,235.8 191.8,235.6 191.8,235.6 191.8,234.6 200.1,234.6 200.1,236.1 200.5,236.1 200.5,235.1 203.0,235.1 203.0,234.9 213.1,234.9 213.1,234.7 213.9,234.7 213.9,234.4 214.9,234.4 214.9,234.2 215.5,234.2 215.5,233.9 216.9,233.9 216.9,233.4 217.0,233.4 217.0,235.6 217.0,235.6 217.0,242.4 217.1,242.4 217.1,244.4 217.1,244.4 217.1,251.2 219.8,251.2 219.8,251.0 221.6,251.0 221.6,250.8 222.8,250.8 222.8,250.6 223.2,250.6 223.2,250.1 223.2,250.1 223.2,249.8 223.5,249.8 223.5,249.6 264.2,249.6 264.2,249.4 271.6,249.4 271.6,249.2 277.5,249.2 277.5,253.0 277.5,253.0 277.5,253.5 277.5,253.5 277.5,254.0 277.5,254.0 277.5,254.3 277.5,254.3 277.5,254.3 277.5,254.3 277.5,255.2 277.8,255.2 277.8,255.0 279.3,255.0 279.3,254.9 281.3,254.9 281.3,254.7 285.6,254.7 285.6,254.6 286.6,254.6 286.6,254.5 287.3,254.5 287.3,254.2 288.5,254.2 288.5,253.5 290.6,253.5 290.6,253.4 290.6,253.4 290.6,253.4 296.1,253.4 296.1,253.2 297.0,253.2 297.0,253.0 306.3,253.0 306.3,252.9 312.0,252.9 312.0,252.7 312.3,252.7 312.3,252.6 314.5,252.6 314.5,252.4 314.5,252.4 314.5,252.2 314.7,252.2 314.7,252.0 316.2,252.0 316.2,251.8 316.4,251.8 316.4,251.6 319.1,251.6 319.1,251.3 329.2,251.3 329.2,251.0 330.4,251.0 330.4,250.7 332.8,250.7 332.8,250.5 334.2,250.5 334.2,250.3 334.3,250.3 334.3,250.1 334.5,250.1 334.5,249.9 334.9,249.9 334.9,249.8 335.4,249.8 335.4,249.2 335.4,249.2 335.4,249.0 336.3,249.0 336.3,249.4 336.5,249.4 336.5,249.3 342.9,249.3 342.9,249.1 344.2,249.1 344.2,249.0 350.1,249.0 350.1,248.6 352.9,248.6 352.9,248.1 352.9,248.1 352.9,247.6 352.9,247.6 352.9,247.3 353.5,247.3 353.5,247.8 353.5,247.8 353.5,249.3 353.7,249.3 353.7,249.2 353.7,249.2 353.7,249.1 355.9,249.1 355.9,249.0 356.2,249.0 356.2,249.0 356.4,249.0 356.4,248.9 356.8,248.9 356.8,248.8 357.6,248.8 357.6,248.3 357.6,248.3 357.6,248.3 357.6,248.3 357.6,248.1 357.6,248.1 357.6,248.0 357.6,248.0 357.6,248.0 359.0,248.0 359.0,247.9 404.7,247.9 404.7,249.5 410.2,249.5 410.2,249.4 411.6,249.4 411.6,249.4 413.2,249.4 413.2,249.1 416.2,249.1 416.2,249.8 416.4,249.8 416.4,249.8 416.8,249.8 416.8,249.6 417.4,249.6 417.4,250.2 417.5,250.2 417.5,250.5 418.3,250.5 418.3,250.6 418.5,250.6 418.5,250.5 418.5,250.5 418.5,250.5 422.1,250.5 422.1,250.4 424.5,250.4 424.5,250.4 425.0,250.4 425.0,250.2 425.0,250.2 425.0,250.2 425.3,250.2 425.3,250.0 426.2,250.0 426.2,249.7 427.8,249.7 427.8,249.5 432.6,249.5 432.6,249.0 432.6,249.0 432.6,248.7 433.1,248.7 433.1,248.6 433.1,248.6 433.1,248.4 433.2,248.4 433.2,248.3 433.7,248.3 433.7,248.0 435.2,248.0 435.2,247.8 435.7,247.8 435.7,247.6 435.7,247.6 435.7,247.4 435.7,247.4 435.7,247.0 437.0,247.0 437.0,246.8 442.8,246.8 442.8,246.7 442.8,246.7 442.8,246.0 442.8,246.0 442.8,245.4 442.8,245.4 442.8,245.2 445.7,245.2 445.7,245.2 447.7,245.2 447.7,244.8 448.5,244.8 448.5,244.7 449.0,244.7 449.0,244.5 451.1,244.5 451.1,244.4 451.2,244.4 451.2,244.3 451.2,244.3 451.2,244.1 451.3,244.1 451.3,243.9 451.4,243.9 451.4,243.8 455.3,243.8 455.3,243.7 455.3,243.7 455.3,243.6 461.7,243.6 461.7,243.4 461.9,243.4 461.9,243.4 465.3,243.4 465.3,243.3 465.6,243.3 465.6,243.1 468.0,243.1 468.0,244.9 468.5,244.9 468.5,245.4 469.6,245.4 469.6,245.3 470.3,245.3 470.3,245.0 470.3,245.0 470.3,244.9 472.0,244.9 472.0,244.6 473.9,244.6 473.9,244.5 476.4,244.5 476.4,244.5 487.3,244.5 487.3,246.1 487.3,246.1 487.3,246.7 487.4,246.7 487.4,247.3 488.1,247.3 488.1,247.2 488.8,247.2 488.8,247.0 488.9,247.0 488.9,246.9 490.1,246.9 490.1,246.7 490.3,246.7 490.3,246.5 490.3,246.5 490.3,246.3 490.3,246.3 490.3,246.0 491.8,246.0 491.8,245.8 491.9,245.8 491.9,245.7 491.9,245.7 491.9,245.3 492.4,245.3 492.4,245.1 493.1,245.1 493.1,245.0 536.3,245.0 536.3,245.1 536.3,245.1 536.3,245.6 536.4,245.6 536.4,245.6 536.5,245.6 536.5,245.7 536.6,245.7 536.6,246.4 537.2,246.4 537.2,246.0 538.7,246.0 538.7,245.8 539.8,245.8 539.8,245.6 543.9,245.6 543.9,245.4 544.2,245.4 544.2,245.2 544.3,245.2 544.3,245.0 544.4,245.0 544.4,244.9 544.5,244.9 544.5,244.7 545.0,244.7 545.0,244.5 545.3,244.5 545.3,244.5 546.7,244.5 546.7,244.3 549.3,244.3 549.3,244.1 549.5,244.1 549.5,243.9 549.6,243.9 549.6,243.8 552.8,243.8 552.8,243.7 555.4,243.7 555.4,243.5 558.1,243.5 558.1,243.4 559.7,243.4 559.7,243.3 560.4,243.3 560.4,243.3 562.2,243.3 562.2,243.1 563.1,243.1 563.1,242.9 563.8,242.9 563.8,242.5 564.9,242.5 564.9,242.4 566.1,242.4 566.1,242.2 567.3,242.2 567.3,242.0 568.8,242.0 568.8,241.7 568.8,241.7 568.8,241.4 569.5,241.4 569.5,241.2 569.5,241.2 569.5,241.0 574.7,241.0 574.7,240.9 580.0,240.9 580.0,240.5 580.0,240.5 580.0,240.2 583.0,240.2 583.0,240.0 587.8,240.0 587.8,240.0 588.2,240.0 588.2,239.8 588.7,239.8 588.7,239.6 588.8,239.6 588.8,239.5 588.8,239.5 588.8,239.4 589.0,239.4 589.0,238.8 589.0,238.8 589.0,238.4 589.4,238.4 589.4,237.7 591.1,237.7 591.1,237.2 591.1,237.2 591.1,236.6 592.1,236.6 592.1,236.4 594.5,236.4 594.5,236.1 597.1,236.1 597.1,235.5 598.4,235.5 598.4,235.4 599.2,235.4 599.2,235.2 606.5,235.2 606.5,235.0 606.7,235.0 606.7,234.6 606.8,234.6 606.8,234.5 607.3,234.5 607.3,234.4 607.5,234.4 607.5,234.2 607.5,234.2 607.5,234.1 607.9,234.1 607.9,233.7 607.9,233.7 607.9,233.6 608.0,233.6 608.0,233.2 608.0,233.2 608.0,233.2 608.0,233.2 608.0,233.1 608.1,233.1 608.1,233.0 608.1,233.0 608.1,232.7 609.3,232.7 609.3,232.5 610.0,232.5 610.0,232.3 611.8,232.3 611.8,232.0 611.8,232.0 611.8,231.9 615.1,231.9 615.1,231.7 616.5,231.7 616.5,231.5 618.5,231.5 618.5,231.1 618.6,231.1 618.6,230.9 621.4,230.9 621.4,230.5 624.0,230.5 624.0,230.1 625.2,230.1 625.2,229.9 626.4,229.9 626.4,229.7 628.0,229.7 628.0,229.5 628.0,229.5 628.0,228.8 628.0,228.8 628.0,228.4 628.1,228.4 628.1,227.4 628.4,227.4 628.4,228.7 628.4,228.7 628.4,232.5 628.5,232.5 628.5,232.1 628.7,232.1 628.7,231.4 628.8,231.4 628.8,231.0 628.8,231.0 628.8,230.3 629.7,230.3 629.7,233.1 629.9,233.1 629.9,236.9 631.0,236.9 631.0,240.8 633.5,240.8 633.5,242.1 675.4,242.1 675.4,241.9 675.4,241.9 675.4,241.7 676.0,241.7 676.0,241.6 677.1,241.6 677.1,241.3 681.3,241.3 681.3,240.9 681.8,240.9 681.8,240.4 681.8,240.4 681.8,240.2 685.4,240.2 685.4,239.8 686.2,239.8 686.2,239.6 686.6,239.6 686.6,240.5 686.7,240.5 686.7,241.6 686.9,241.6 686.9,241.0 686.9,241.0 686.9,240.6 687.1,240.6 687.1,240.3 687.2,240.3 687.2,239.8 687.3,239.8 687.3,239.6 687.3,239.6 687.3,239.3 687.3,239.3 687.3,239.7 689.3,239.7 689.3,239.4 692.0,239.4 692.0,239.0 695.9,239.0 695.9,238.8 700.2,238.8 700.2,238.4 715.5,238.4 715.5,241.9 718.3,241.9 718.3,243.2 719.0,243.2 719.0,244.4 719.9,244.4 719.9,247.5 720.8,247.5 720.8,247.3 720.9,247.3 720.9,250.8 721.2,250.8 721.2,254.3 722.4,254.3 722.4,257.9 724.1,257.9 724.1,257.5 725.2,257.5 725.2,256.3 725.2,256.3 725.2,255.1 725.2,255.1 725.2,254.0 725.2,254.0 725.2,252.9 725.2,252.9 725.2,252.5 725.2,252.5 725.2,252.2 725.6,252.2 725.6,251.7 725.6,251.7 725.6,251.1 726.5,251.1 726.5,251.0 733.9,251.0 733.9,250.6 735.9,250.6 735.9,250.1 737.7,250.1 737.7,249.5 737.7,249.5 737.7,249.1 738.8,249.1 738.8,248.7 739.1,248.7 739.1,247.5 739.1,247.5 739.1,246.9 739.5,246.9 739.5,246.5 739.5,246.5 739.5,246.1 739.5,246.1 739.5,245.5 740.4,245.5 740.4,245.1 743.9,245.1 743.9,244.7 743.9,244.7 743.9,244.1 743.9,244.1 743.9,244.0 744.0,244.0 744.0,243.6 744.3,243.6 744.3,243.4 744.3,243.4 744.3,243.0 744.9,243.0 744.9,242.5 745.9,242.5 745.9,242.4 746.0,242.4 746.0,242.1 747.0,242.1 747.0,241.7 749.4,241.7 749.4,241.4 749.6,241.4 749.6,241.2 753.2,241.2 753.2,240.9 759.8,240.9 759.8,240.4 762.4,240.4 762.4,240.1 763.4,240.1 763.4,238.8 763.4,238.8 763.4,238.2 764.1,238.2 764.1,237.5 764.3,237.5 764.3,236.3 766.2,236.3 766.2,235.9 809.5,235.9 809.5,237.3 809.7,237.3 809.7,239.6 809.7,239.6 809.7,241.4 809.8,241.4 809.8,244.1 811.3,244.1 811.3,243.9 812.1,243.9 812.1,243.8 812.2,243.8 812.2,243.4 818.3,243.4 818.3,242.9 818.5,242.9 818.5,241.9 818.5,241.9 818.5,241.4 818.6,241.4 818.6,240.9 822.7,240.9 822.7,242.3 822.8,242.3 822.8,243.2 825.2,243.2 825.2,244.2 825.6,244.2 825.6,244.1 830.1,244.1 830.1,243.9 833.5,243.9 833.5,243.2 836.3,243.2 836.3,242.7 840.0,242.7 840.0,242.4 841.9,242.4 841.9,242.3 842.4,242.3 842.4,241.3 843.2,241.3 843.2,244.3 843.5,244.3 843.5,243.5 843.7,243.5 843.7,243.0 845.0,243.0 845.0,242.4 851.3,242.4 851.3,242.0 856.0,242.0 856.0,241.5 859.1,241.5 859.1,241.1 860.0,241.1 860.0,241.1" fill="none" stroke="#f85149" stroke-width="2.5"/><circle cx="860.0" cy="241.1" r="4" fill="#f85149"/><circle cx="860.0" cy="257.5" r="3" fill="#58a6ff"/><text x="860" y="203" font-size="10" text-anchor="end" fill="#7d8590"><tspan fill="#f85149">━ realized</tspan>  <tspan fill="#58a6ff">─ NAV incl. open (hourly)</tspan></text><text x="40" y="290" font-size="11" fill="#6e7681">range-sized wide-stop ratchet · engage +8.5 → lock +6 → trail 2.5 · poppers · 15%/trade · OANDA LIVE — real money · broker-verified · updated 2026-09-09 11:15 UTC</text></svg>
