<svg xmlns="http://www.w3.org/2000/svg" viewBox="0 0 900 300" width="100%" font-family="system-ui,-apple-system,sans-serif"><defs><linearGradient id="bg" x1="0" y1="0" x2="0" y2="1"><stop offset="0" stop-color="#161b22"/><stop offset="1" stop-color="#0d1117"/></linearGradient><linearGradient id="fill" x1="0" y1="0" x2="0" y2="1"><stop offset="0" stop-color="#f85149" stop-opacity="0.35"/><stop offset="1" stop-color="#f85149" stop-opacity="0"/></linearGradient></defs><rect x="1" y="1" width="898" height="298" rx="16" fill="url(#bg)" stroke="#30363d"/><circle cx="40" cy="42" r="6" fill="#3fb950"/><text x="56" y="47" font-size="14" font-weight="700" fill="#e6edf3" letter-spacing="2">LIVE</text><text x="98" y="47" font-size="14" fill="#7d8590" letter-spacing="1">· MR. SCROOGE — REAL MONEY</text><text x="862" y="47" font-size="12" fill="#7d8590" text-anchor="end">NAV $1,292.86</text><text x="38" y="118" font-size="66" font-weight="800" fill="#f85149">−$1,112.83</text><text x="422" y="118" font-size="26" font-weight="700" fill="#f85149">▼ -44.51%</text><text x="40" y="140" font-size="12" fill="#7d8590">config-to-date · realized + open, since 2026-07-29</text><text x="40" y="172" font-family="system-ui,-apple-system,sans-serif" font-size="12" fill="#7d8590" letter-spacing="1">REALIZED</text><text x="40" y="197" font-family="system-ui,-apple-system,sans-serif" font-size="21" font-weight="700" fill="#f85149">−$1,107.56</text><text x="250" y="172" font-family="system-ui,-apple-system,sans-serif" font-size="12" fill="#7d8590" letter-spacing="1">TRADES</text><text x="250" y="197" font-family="system-ui,-apple-system,sans-serif" font-size="21" font-weight="700" fill="#e6edf3">465/585 green</text><text x="470" y="172" font-family="system-ui,-apple-system,sans-serif" font-size="12" fill="#7d8590" letter-spacing="1">OPEN</text><text x="470" y="197" font-family="system-ui,-apple-system,sans-serif" font-size="21" font-weight="700" fill="#e6edf3">4 (−$5.27)</text><text x="690" y="172" font-family="system-ui,-apple-system,sans-serif" font-size="12" fill="#7d8590" letter-spacing="1">WIN RATE</text><text x="690" y="197" font-family="system-ui,-apple-system,sans-serif" font-size="21" font-weight="700" fill="#e6edf3">79%</text><polygon points="40,268 40.0,209.6 42.7,209.6 42.7,208.4 43.6,208.4 43.6,208.2 45.1,208.2 45.1,208.1 45.1,208.1 45.1,208.0 45.2,208.0 45.2,209.0 46.4,209.0 46.4,210.1 46.5,210.1 46.5,211.3 46.6,211.3 46.6,212.3 46.6,212.3 46.6,213.2 48.7,213.2 48.7,213.1 48.7,213.1 48.7,213.0 53.1,213.0 53.1,212.8 54.5,212.8 54.5,212.6 55.1,212.6 55.1,212.3 55.3,212.3 55.3,212.1 55.7,212.1 55.7,211.8 55.7,211.8 55.7,212.8 55.7,212.8 55.7,212.1 56.5,212.1 56.5,212.0 56.7,212.0 56.7,211.7 56.7,211.7 56.7,211.2 57.5,211.2 57.5,211.1 57.9,211.1 57.9,212.1 57.9,212.1 57.9,213.4 59.0,213.4 59.0,214.7 59.6,214.7 59.6,214.4 60.1,214.4 60.1,214.2 60.5,214.2 60.5,213.8 60.6,213.8 60.6,213.6 60.6,213.6 60.6,215.1 62.4,215.1 62.4,216.2 64.7,216.2 64.7,217.2 66.3,217.2 66.3,217.1 70.5,217.1 70.5,216.9 73.4,216.9 73.4,216.3 73.4,216.3 73.4,216.1 73.4,216.1 73.4,215.5 73.5,215.5 73.5,215.1 73.6,215.1 73.6,213.5 73.6,213.5 73.6,212.6 73.9,212.6 73.9,212.0 73.9,212.0 73.9,211.6 74.0,211.6 74.0,211.4 74.0,211.4 74.0,210.9 74.2,210.9 74.2,210.3 74.2,210.3 74.2,209.9 74.3,209.9 74.3,209.8 74.4,209.8 74.4,211.3 74.4,211.3 74.4,213.1 74.4,213.1 74.4,214.9 74.4,214.9 74.4,216.8 74.5,216.8 74.5,215.7 74.5,215.7 74.5,215.5 74.7,215.5 74.7,215.4 74.7,215.4 74.7,215.1 74.8,215.1 74.8,216.2 74.8,216.2 74.8,215.6 74.8,215.6 74.8,215.5 74.9,215.5 74.9,215.3 74.9,215.3 74.9,216.4 74.9,216.4 74.9,217.4 74.9,217.4 74.9,217.3 75.0,217.3 75.0,217.3 75.1,217.3 75.1,217.1 75.1,217.1 75.1,216.9 75.1,216.9 75.1,216.5 75.1,216.5 75.1,216.5 75.1,216.5 75.1,216.3 75.4,216.3 75.4,217.4 75.4,217.4 75.4,217.2 76.4,217.2 76.4,218.3 76.6,218.3 76.6,219.3 76.6,219.3 76.6,218.8 76.6,218.8 76.6,218.4 76.7,218.4 76.7,218.1 76.9,218.1 76.9,219.6 77.6,219.6 77.6,219.1 78.0,219.1 78.0,218.9 78.6,218.9 78.6,218.8 111.5,218.8 111.5,219.5 113.3,219.5 113.3,219.4 114.6,219.4 114.6,218.8 115.0,218.8 115.0,218.7 115.7,218.7 115.7,218.5 118.1,218.5 118.1,218.3 118.1,218.3 118.1,218.1 118.4,218.1 118.4,217.2 118.8,217.2 118.8,217.1 119.2,217.1 119.2,216.2 119.6,216.2 119.6,216.1 122.4,216.1 122.4,215.8 122.4,215.8 122.4,215.7 122.6,215.7 122.6,215.5 122.6,215.5 122.6,215.4 122.6,215.4 122.6,214.9 122.7,214.9 122.7,214.8 122.8,214.8 122.8,214.7 122.8,214.7 122.8,214.5 122.8,214.5 122.8,214.3 123.0,214.3 123.0,214.2 123.0,214.2 123.0,213.9 123.0,213.9 123.0,213.8 123.5,213.8 123.5,213.6 123.5,213.6 123.5,213.4 123.5,213.4 123.5,213.3 123.9,213.3 123.9,213.1 126.2,213.1 126.2,212.9 127.2,212.9 127.2,214.0 127.2,214.0 127.2,213.9 127.2,213.9 127.2,215.0 127.4,215.0 127.4,216.0 128.3,216.0 128.3,217.1 129.4,217.1 129.4,218.2 131.0,218.2 131.0,217.8 134.6,217.8 134.6,217.4 142.5,217.4 142.5,221.3 154.9,221.3 154.9,221.2 155.4,221.2 155.4,222.7 157.3,222.7 157.3,222.5 159.7,222.5 159.7,226.3 165.7,226.3 165.7,226.2 165.8,226.2 165.8,225.5 172.6,225.5 172.6,226.5 172.9,226.5 172.9,225.8 175.0,225.8 175.0,225.7 183.3,225.7 183.3,225.6 184.1,225.6 184.1,225.4 184.9,225.4 184.9,225.3 185.4,225.3 185.4,225.1 186.5,225.1 186.5,224.7 186.6,224.7 186.6,226.2 186.6,226.2 186.6,230.6 186.7,230.6 186.7,231.9 186.7,231.9 186.7,236.4 188.9,236.4 188.9,236.3 190.4,236.3 190.4,236.2 191.4,236.2 191.4,236.1 191.8,236.1 191.8,235.7 191.8,235.7 191.8,235.5 192.0,235.5 192.0,235.4 225.7,235.4 225.7,235.3 231.9,235.3 231.9,235.1 236.7,235.1 236.7,237.6 236.7,237.6 236.7,237.9 236.7,237.9 236.7,238.3 236.7,238.3 236.7,238.5 236.7,238.5 236.7,238.5 236.7,238.5 236.7,239.1 237.0,239.1 237.0,238.9 238.2,238.9 238.2,238.9 239.9,238.9 239.9,238.8 243.4,238.8 243.4,238.7 244.3,238.7 244.3,238.6 244.8,238.6 244.8,238.4 245.8,238.4 245.8,237.9 247.6,237.9 247.6,237.9 247.6,237.9 247.6,237.9 252.1,237.9 252.1,237.8 252.8,237.8 252.8,237.6 260.6,237.6 260.6,237.6 265.3,237.6 265.3,237.4 265.6,237.4 265.6,237.3 267.4,237.3 267.4,237.2 267.4,237.2 267.4,237.1 267.5,237.1 267.5,237.0 268.7,237.0 268.7,236.9 269.0,236.9 269.0,236.7 271.2,236.7 271.2,236.5 279.5,236.5 279.5,236.3 280.5,236.3 280.5,236.1 282.5,236.1 282.5,236.0 283.7,236.0 283.7,235.9 283.8,235.9 283.8,235.7 283.9,235.7 283.9,235.6 284.3,235.6 284.3,235.5 284.7,235.5 284.7,235.1 284.7,235.1 284.7,235.0 285.4,235.0 285.4,235.3 285.6,235.3 285.6,235.2 290.9,235.2 290.9,235.1 292.0,235.1 292.0,235.0 296.9,235.0 296.9,234.7 299.2,234.7 299.2,234.4 299.2,234.4 299.2,234.1 299.2,234.1 299.2,233.9 299.6,233.9 299.6,234.2 299.7,234.2 299.7,235.2 299.8,235.2 299.8,235.1 299.8,235.1 299.8,235.1 301.6,235.1 301.6,235.0 301.9,235.0 301.9,235.0 302.1,235.0 302.1,234.9 302.4,234.9 302.4,234.9 303.1,234.9 303.1,234.6 303.1,234.6 303.1,234.5 303.1,234.5 303.1,234.4 303.1,234.4 303.1,234.4 303.1,234.4 303.1,234.3 304.2,234.3 304.2,234.3 342.1,234.3 342.1,235.3 346.7,235.3 346.7,235.3 347.8,235.3 347.8,235.2 349.1,235.2 349.1,235.0 351.6,235.0 351.6,235.5 351.7,235.5 351.7,235.5 352.1,235.5 352.1,235.4 352.6,235.4 352.6,235.8 352.7,235.8 352.7,236.0 353.4,236.0 353.4,236.0 353.5,236.0 353.5,236.0 353.5,236.0 353.5,236.0 356.5,236.0 356.5,235.9 358.5,235.9 358.5,235.9 358.9,235.9 358.9,235.8 358.9,235.8 358.9,235.8 359.2,235.8 359.2,235.7 359.9,235.7 359.9,235.5 361.2,235.5 361.2,235.3 365.2,235.3 365.2,235.0 365.2,235.0 365.2,234.8 365.6,234.8 365.6,234.7 365.6,234.7 365.6,234.6 365.7,234.6 365.7,234.5 366.1,234.5 366.1,234.3 367.3,234.3 367.3,234.2 367.8,234.2 367.8,234.1 367.8,234.1 367.8,233.9 367.8,233.9 367.8,233.7 368.9,233.7 368.9,233.6 373.6,233.6 373.6,233.5 373.7,233.5 373.7,233.0 373.7,233.0 373.7,232.6 373.7,232.6 373.7,232.5 376.1,232.5 376.1,232.5 377.7,232.5 377.7,232.3 378.4,232.3 378.4,232.1 378.8,232.1 378.8,232.0 380.5,232.0 380.5,232.0 380.6,232.0 380.6,231.9 380.6,231.9 380.6,231.8 380.6,231.8 380.6,231.7 380.8,231.7 380.8,231.6 384.0,231.6 384.0,231.5 384.0,231.5 384.0,231.4 389.3,231.4 389.3,231.3 389.5,231.3 389.5,231.3 392.3,231.3 392.3,231.2 392.5,231.2 392.5,231.1 394.5,231.1 394.5,232.3 394.9,232.3 394.9,232.6 395.9,232.6 395.9,232.5 396.4,232.5 396.4,232.4 396.4,232.4 396.4,232.3 397.9,232.3 397.9,232.1 399.4,232.1 399.4,232.1 401.5,232.1 401.5,232.0 410.5,232.0 410.5,233.1 410.5,233.1 410.5,233.5 410.6,233.5 410.6,233.9 411.2,233.9 411.2,233.8 411.8,233.8 411.8,233.7 411.8,233.7 411.8,233.6 412.8,233.6 412.8,233.5 413.0,233.5 413.0,233.3 413.0,233.3 413.0,233.2 413.0,233.2 413.0,233.0 414.3,233.0 414.3,232.9 414.3,232.9 414.3,232.8 414.3,232.8 414.3,232.6 414.7,232.6 414.7,232.4 415.3,232.4 415.3,232.3 451.1,232.3 451.1,232.4 451.1,232.4 451.1,232.7 451.1,232.7 451.1,232.8 451.3,232.8 451.3,232.8 451.3,232.8 451.3,233.3 451.8,233.3 451.8,233.0 453.1,233.0 453.1,232.9 454.0,232.9 454.0,232.8 457.4,232.8 457.4,232.6 457.7,232.6 457.7,232.5 457.7,232.5 457.7,232.4 457.8,232.4 457.8,232.3 457.8,232.3 457.8,232.2 458.3,232.2 458.3,232.1 458.6,232.1 458.6,232.0 459.7,232.0 459.7,231.9 461.9,231.9 461.9,231.8 462.0,231.8 462.0,231.7 462.1,231.7 462.1,231.6 464.7,231.6 464.7,231.5 466.9,231.5 466.9,231.4 469.2,231.4 469.2,231.3 470.4,231.3 470.4,231.3 471.0,231.3 471.0,231.2 472.6,231.2 472.6,231.1 473.3,231.1 473.3,231.0 473.9,231.0 473.9,230.7 474.8,230.7 474.8,230.6 475.8,230.6 475.8,230.5 476.8,230.5 476.8,230.4 478.0,230.4 478.0,230.2 478.0,230.2 478.0,230.0 478.6,230.0 478.6,229.8 478.6,229.8 478.6,229.7 482.9,229.7 482.9,229.7 487.3,229.7 487.3,229.4 487.3,229.4 487.3,229.2 489.8,229.2 489.8,229.1 493.8,229.1 493.8,229.0 494.1,229.0 494.1,228.9 494.5,228.9 494.5,228.8 494.5,228.8 494.5,228.7 494.5,228.7 494.5,228.6 494.7,228.6 494.7,228.3 494.7,228.3 494.7,228.0 495.1,228.0 495.1,227.5 496.4,227.5 496.4,227.2 496.5,227.2 496.5,226.8 497.3,226.8 497.3,226.7 499.3,226.7 499.3,226.5 501.4,226.5 501.4,226.1 502.5,226.1 502.5,226.0 503.2,226.0 503.2,225.9 509.2,225.9 509.2,225.8 509.4,225.8 509.4,225.5 509.5,225.5 509.5,225.4 509.9,225.4 509.9,225.3 510.0,225.3 510.0,225.2 510.1,225.2 510.1,225.2 510.4,225.2 510.4,224.9 510.4,224.9 510.4,224.8 510.5,224.8 510.5,224.6 510.5,224.6 510.5,224.6 510.5,224.6 510.5,224.5 510.5,224.5 510.5,224.4 510.5,224.4 510.5,224.2 511.5,224.2 511.5,224.1 512.2,224.1 512.2,224.0 513.6,224.0 513.6,223.8 513.6,223.8 513.6,223.7 516.3,223.7 516.3,223.6 517.5,223.6 517.5,223.4 519.2,223.4 519.2,223.2 519.3,223.2 519.3,223.1 521.6,223.1 521.6,222.8 523.7,222.8 523.7,222.6 524.7,222.6 524.7,222.4 525.7,222.4 525.7,222.3 527.1,222.3 527.1,222.2 527.1,222.2 527.1,221.7 527.1,221.7 527.1,221.5 527.1,221.5 527.1,220.8 527.3,220.8 527.3,221.6 527.4,221.6 527.4,224.2 527.5,224.2 527.5,223.9 527.7,223.9 527.7,223.4 527.7,223.4 527.7,223.1 527.7,223.1 527.7,222.7 528.5,222.7 528.5,224.5 528.6,224.5 528.6,227.0 529.5,227.0 529.5,229.6 531.6,229.6 531.6,230.4 566.3,230.4 566.3,230.3 566.3,230.3 566.3,230.2 566.8,230.2 566.8,230.1 567.7,230.1 567.7,229.9 571.2,229.9 571.2,229.7 571.6,229.7 571.6,229.3 571.6,229.3 571.6,229.2 574.6,229.2 574.6,229.0 575.2,229.0 575.2,228.8 575.6,228.8 575.6,229.4 575.6,229.4 575.6,230.1 575.8,230.1 575.8,229.7 575.9,229.7 575.9,229.4 576.0,229.4 576.0,229.3 576.1,229.3 576.1,228.9 576.2,228.9 576.2,228.8 576.2,228.8 576.2,228.6 576.2,228.6 576.2,228.9 577.8,228.9 577.8,228.7 580.1,228.7 580.1,228.4 583.3,228.4 583.3,228.3 586.8,228.3 586.8,228.0 599.5,228.0 599.5,230.3 601.8,230.3 601.8,231.2 602.4,231.2 602.4,232.0 603.1,232.0 603.1,234.0 603.9,234.0 603.9,233.9 604.0,233.9 604.0,236.2 604.2,236.2 604.2,238.5 605.2,238.5 605.2,240.8 606.6,240.8 606.6,240.6 607.5,240.6 607.5,239.8 607.5,239.8 607.5,239.0 607.5,239.0 607.5,238.3 607.5,238.3 607.5,237.5 607.5,237.5 607.5,237.3 607.5,237.3 607.5,237.1 607.8,237.1 607.8,236.8 607.9,236.8 607.9,236.4 608.6,236.4 608.6,236.3 614.8,236.3 614.8,236.0 616.4,236.0 616.4,235.7 617.9,235.7 617.9,235.3 617.9,235.3 617.9,235.1 618.8,235.1 618.8,234.8 619.1,234.8 619.1,234.0 619.1,234.0 619.1,233.6 619.4,233.6 619.4,233.3 619.4,233.3 619.4,233.1 619.4,233.1 619.4,232.7 620.1,232.7 620.1,232.4 623.1,232.4 623.1,232.2 623.1,232.2 623.1,231.8 623.1,231.8 623.1,231.7 623.1,231.7 623.1,231.5 623.3,231.5 623.3,231.3 623.3,231.3 623.3,231.0 623.9,231.0 623.9,230.7 624.7,230.7 624.7,230.7 624.8,230.7 624.8,230.5 625.6,230.5 625.6,230.2 627.6,230.2 627.6,230.0 627.8,230.0 627.8,229.8 630.7,229.8 630.7,229.7 636.2,229.7 636.2,229.3 638.3,229.3 638.3,229.1 639.2,229.1 639.2,228.3 639.2,228.3 639.2,227.9 639.8,227.9 639.8,227.4 639.9,227.4 639.9,226.6 641.5,226.6 641.5,226.3 677.4,226.3 677.4,227.3 677.5,227.3 677.5,228.8 677.6,228.8 677.6,230.0 677.7,230.0 677.7,231.8 678.9,231.8 678.9,231.7 679.6,231.7 679.6,231.5 679.7,231.5 679.7,231.3 684.7,231.3 684.7,231.0 684.9,231.0 684.9,230.3 684.9,230.3 684.9,230.0 684.9,230.0 684.9,229.7 688.3,229.7 688.3,230.6 688.4,230.6 688.4,231.2 690.4,231.2 690.4,231.9 690.7,231.9 690.7,231.8 694.5,231.8 694.5,231.6 697.3,231.6 697.3,231.2 699.6,231.2 699.6,230.9 702.7,230.9 702.7,230.6 704.3,230.6 704.3,230.6 704.6,230.6 704.6,229.9 705.3,229.9 705.3,231.9 705.5,231.9 705.5,231.4 705.7,231.4 705.7,231.1 706.8,231.1 706.8,230.6 712.0,230.6 712.0,230.4 715.9,230.4 715.9,230.1 718.4,230.1 718.4,229.8 719.6,229.8 719.6,229.3 720.6,229.3 720.6,229.0 720.9,229.0 720.9,228.8 720.9,228.8 720.9,228.7 721.1,228.7 721.1,228.6 721.4,228.6 721.4,228.4 721.6,228.4 721.6,228.2 721.8,228.2 721.8,227.9 721.9,227.9 721.9,228.7 722.0,228.7 722.0,228.6 722.0,228.6 722.0,228.4 722.1,228.4 722.1,228.2 722.1,228.2 722.1,227.9 722.5,227.9 722.5,227.7 726.5,227.7 726.5,229.9 726.8,229.9 726.8,229.8 729.2,229.8 729.2,229.7 729.2,229.7 729.2,229.3 729.9,229.3 729.9,229.1 730.7,229.1 730.7,228.9 732.9,228.9 732.9,228.8 734.9,228.8 734.9,229.6 734.9,229.6 734.9,230.3 734.9,230.3 734.9,231.0 736.2,231.0 736.2,234.5 736.2,234.5 736.2,237.9 736.2,237.9 736.2,241.0 736.2,241.0 736.2,242.7 736.2,242.7 736.2,243.4 736.2,243.4 736.2,244.1 736.2,244.1 736.2,244.8 736.4,244.8 736.4,244.6 736.8,244.6 736.8,244.4 737.8,244.4 737.8,244.2 739.2,244.2 739.2,244.2 741.8,244.2 741.8,247.1 744.0,247.1 744.0,247.0 744.8,247.0 744.8,247.0 746.2,247.0 746.2,246.9 747.8,246.9 747.8,246.8 747.9,246.8 747.9,246.4 748.0,246.4 748.0,246.1 748.4,246.1 748.4,245.8 751.6,245.8 751.6,245.7 752.4,245.7 752.4,247.3 752.4,247.3 752.4,248.3 752.4,248.3 752.4,248.1 752.5,248.1 752.5,247.7 752.6,247.7 752.6,247.5 752.7,247.5 752.7,247.1 753.2,247.1 753.2,246.9 754.1,246.9 754.1,246.9 791.2,246.9 791.2,246.8 792.3,246.8 792.3,247.9 794.8,247.9 794.8,249.4 796.7,249.4 796.7,251.6 798.6,251.6 798.6,252.9 798.9,252.9 798.9,252.7 798.9,252.7 798.9,252.4 800.1,252.4 800.1,253.2 801.0,253.2 801.0,255.2 801.0,255.2 801.0,256.3 802.1,256.3 802.1,256.2 802.4,256.2 802.4,256.2 802.5,256.2 802.5,256.1 803.6,256.1 803.6,255.9 803.9,255.9 803.9,255.8 803.9,255.8 803.9,255.4 804.0,255.4 804.0,255.2 805.3,255.2 805.3,255.0 809.1,255.0 809.1,254.9 811.3,254.9 811.3,254.8 814.0,254.8 814.0,254.7 814.1,254.7 814.1,254.6 814.3,254.6 814.3,254.4 815.3,254.4 815.3,254.3 816.4,254.3 816.4,254.2 817.0,254.2 817.0,254.1 817.3,254.1 817.3,253.9 818.0,253.9 818.0,253.9 818.4,253.9 818.4,253.8 829.8,253.8 829.8,253.8 836.4,253.8 836.4,254.3 836.9,254.3 836.9,255.7 837.1,255.7 837.1,257.1 837.1,257.1 837.1,256.8 837.3,256.8 837.3,258.8 837.3,258.8 837.3,260.5 837.3,260.5 837.3,262.5 837.4,262.5 837.4,262.2 837.7,262.2 837.7,262.7 837.8,262.7 837.8,262.6 838.2,262.6 838.2,262.5 840.2,262.5 840.2,262.4 840.5,262.4 840.5,262.3 841.0,262.3 841.0,262.2 841.0,262.2 841.0,262.2 841.5,262.2 841.5,262.0 841.8,262.0 841.8,262.0 843.2,262.0 843.2,261.9 845.3,261.9 845.3,261.8 845.4,261.8 845.4,261.5 845.7,261.5 845.7,261.3 846.5,261.3 846.5,261.2 847.1,261.2 847.1,261.1 848.0,261.1 848.0,261.1 849.3,261.1 849.3,260.8 849.4,260.8 849.4,260.4 850.3,260.4 850.3,260.2 850.5,260.2 850.5,260.0 851.5,260.0 851.5,260.6 852.2,260.6 852.2,260.5 852.5,260.5 852.5,260.4 852.5,260.4 852.5,260.3 857.6,260.3 857.6,260.6 857.7,260.6 857.7,260.5 857.8,260.5 857.8,260.5 858.9,260.5 858.9,260.4 859.1,260.4 859.1,260.8 859.1,260.8 859.1,260.0 859.1,260.0 859.1,259.8 859.2,259.8 859.2,259.6 859.6,259.6 859.6,260.0 860.0,260.0 860.0,260.0 860,268" fill="url(#fill)"/><polyline points="40.1,209.6 40.2,209.6 40.8,209.6 41.0,209.6 41.5,209.7 42.2,209.8 42.9,208.4 43.5,208.1 44.2,208.4 44.9,209.4 45.6,210.7 46.2,212.8 46.9,214.3 47.6,214.9 48.3,214.8 48.9,214.2 49.6,214.5 50.3,214.3 50.9,214.9 51.6,214.7 52.3,214.8 53.0,215.0 53.6,214.4 54.3,214.7 55.0,213.8 55.7,211.4 56.3,211.0 57.0,211.5 57.7,211.4 58.4,213.5 59.0,214.9 59.7,217.2 60.4,216.9 61.1,219.0 61.7,219.0 62.4,219.8 63.1,219.4 63.7,219.6 64.4,219.5 65.1,219.7 65.8,219.5 66.4,218.8 67.1,217.6 67.8,218.5 68.5,218.2 69.1,219.4 69.8,219.5 70.5,217.6 71.2,220.2 71.8,218.7 72.5,217.2 73.2,213.5 73.7,212.8 73.9,213.2 74.5,218.1 75.2,218.0 75.9,218.9 76.5,219.2 77.2,221.0 77.9,221.4 78.6,220.5 79.2,221.0 79.9,221.0 80.6,221.0 81.3,221.0 81.9,221.0 82.6,221.0 83.3,221.0 84.0,221.0 84.6,221.0 85.3,221.0 86.0,221.0 86.7,221.0 87.3,221.0 88.0,221.0 88.7,221.0 89.3,221.0 90.0,221.0 90.7,221.0 91.4,221.0 92.0,221.0 92.7,221.0 93.4,221.0 94.1,221.0 94.7,221.0 95.4,221.0 96.1,221.0 96.8,221.0 97.4,221.0 98.1,221.0 98.8,221.0 99.4,221.0 100.1,221.0 100.8,221.0 101.5,221.0 102.1,221.0 102.8,221.0 103.5,221.0 104.2,221.0 104.8,221.0 105.5,221.0 106.2,221.0 106.9,221.0 107.5,221.0 108.2,221.0 108.9,221.0 109.6,221.0 110.2,221.0 110.9,221.0 111.6,223.6 112.2,224.9 112.9,223.1 113.6,222.2 114.3,220.4 114.9,219.5 115.6,219.2 116.3,219.5 117.0,219.6 117.6,220.0 118.3,217.9 119.0,216.7 119.7,216.3 120.3,216.5 121.0,217.0 121.7,217.2 122.4,216.4 123.0,214.6 123.7,213.8 124.4,214.6 125.0,214.7 125.7,214.7 126.4,215.4 127.1,216.3 127.7,218.2 128.4,218.2 129.1,218.3 129.8,219.0 130.4,218.7 131.1,220.9 131.8,220.8 132.5,221.3 133.1,221.4 133.8,220.9 134.5,221.7 135.2,221.7 135.8,222.8 136.5,224.9 137.2,226.0 137.8,225.4 138.5,226.2 139.2,228.9 139.9,226.5 140.5,227.8 141.2,228.5 141.9,228.2 142.6,230.4 143.2,230.7 143.9,230.6 144.6,230.7 145.3,231.1 145.9,230.9 146.6,230.1 147.3,229.4 148.0,232.3 148.6,232.6 149.3,230.8 150.0,231.7 150.6,230.7 151.3,230.9 152.0,230.7 152.7,230.7 153.3,231.5 154.0,232.9 154.7,232.1 155.4,234.9 156.0,234.0 156.7,232.9 157.4,232.6 158.1,234.9 158.7,234.6 159.4,233.6 160.1,234.9 160.8,234.2 161.4,234.5 162.1,234.3 162.8,234.2 163.4,234.3 164.1,233.3 164.8,231.9 165.5,231.1 166.1,231.5 166.8,231.2 167.5,231.1 168.2,232.1 168.8,231.1 169.5,231.7 170.2,231.7 170.9,230.5 171.5,231.4 172.2,231.1 172.9,228.8 173.6,229.7 174.2,230.6 174.9,230.4 175.6,230.0 176.2,231.1 176.9,229.9 177.6,229.8 178.3,229.4 178.9,229.6 179.6,228.9 180.3,228.3 181.0,228.6 181.6,229.2 182.3,229.6 183.0,230.6 183.7,230.4 184.3,230.9 185.0,230.4 185.7,230.3 186.4,231.3 187.0,240.1 187.7,239.9 188.4,240.7 189.0,240.9 189.7,240.7 190.4,240.4 191.1,240.9 191.7,240.1 192.4,240.4 193.1,240.4 193.8,240.4 194.4,240.4 195.1,240.4 195.8,240.4 196.5,240.4 197.1,240.4 197.8,240.4 198.5,240.4 199.1,240.4 199.8,240.4 200.5,240.4 201.2,240.4 201.8,240.4 202.5,240.4 203.2,240.4 203.9,240.4 204.5,240.4 205.2,240.4 205.9,240.4 206.6,240.4 207.2,240.4 207.9,240.4 208.6,240.4 209.3,240.4 209.9,240.4 210.6,240.4 211.3,240.4 211.9,240.4 212.6,240.4 213.3,240.4 214.0,240.4 214.6,240.4 215.3,240.4 216.0,240.4 216.7,240.4 217.3,240.4 218.0,240.4 218.7,240.4 219.4,240.4 220.0,240.4 220.7,240.4 221.4,240.4 222.1,240.4 222.7,240.4 223.4,240.4 224.1,240.4 224.7,240.8 225.4,239.9 226.1,239.7 226.8,240.1 227.4,239.0 228.1,239.5 228.8,238.9 229.5,239.0 230.1,239.4 230.8,239.9 231.5,239.7 232.2,240.5 232.8,240.1 233.5,239.4 234.2,239.5 234.9,239.2 235.5,239.2 236.2,239.9 236.9,239.7 237.5,239.7 238.2,239.8 238.9,240.0 239.6,240.0 240.2,239.8 240.9,240.3 241.6,239.9 242.3,239.9 242.9,239.9 243.6,240.0 244.3,240.0 245.0,239.8 245.6,240.0 246.3,239.3 247.0,239.3 247.7,239.2 248.3,239.6 249.0,239.5 249.7,239.4 250.3,239.2 251.0,239.4 251.7,239.2 252.4,239.1 253.0,239.4 253.7,239.4 254.4,239.2 255.1,239.2 255.7,239.2 256.4,239.2 257.1,239.5 257.8,239.4 258.4,239.3 259.1,239.3 259.8,239.3 260.5,239.4 261.1,239.5 261.8,239.6 262.5,239.7 263.1,239.6 263.8,239.5 264.5,239.6 265.2,239.6 265.8,239.6 266.5,239.6 267.2,239.6 267.9,239.3 268.5,239.0 269.2,238.6 269.9,239.1 270.6,239.3 271.2,239.5 271.9,239.6 272.6,239.6 273.3,240.1 273.9,239.6 274.6,239.5 275.3,239.4 275.9,239.2 276.6,239.6 277.3,239.8 278.0,239.9 278.6,239.4 279.3,239.8 280.0,239.9 280.7,239.2 281.3,239.1 282.0,238.4 282.7,238.0 283.4,238.5 284.0,237.5 284.7,236.8 285.4,237.0 286.1,237.4 286.7,237.5 287.4,237.2 288.1,237.3 288.7,237.4 289.4,237.7 290.1,237.4 290.8,237.1 291.4,237.0 292.1,237.1 292.8,237.0 293.5,237.2 294.1,237.2 294.8,237.1 295.5,237.2 296.2,237.1 296.8,236.9 297.5,237.0 298.2,237.2 298.9,237.0 299.5,236.8 300.2,236.9 300.9,237.5 301.5,237.5 302.2,237.2 302.9,236.3 303.6,236.2 304.2,236.4 304.9,236.5 305.6,236.8 306.3,236.8 306.9,236.8 307.6,236.8 308.3,236.8 309.0,236.8 309.6,236.8 310.3,236.8 311.0,236.8 311.6,236.8 312.3,236.8 313.0,236.8 313.7,236.8 314.3,236.8 315.0,236.8 315.7,236.8 316.4,236.8 317.0,236.8 317.7,236.8 318.4,236.8 319.1,236.8 319.7,236.8 320.4,236.8 321.1,236.8 321.8,236.8 322.4,236.8 323.1,236.8 323.8,236.8 324.4,236.8 325.1,236.8 325.8,236.8 326.5,236.8 327.1,236.8 327.8,236.8 328.5,236.8 329.2,236.8 329.8,236.8 330.5,236.8 331.2,236.8 331.9,236.8 332.5,236.8 333.2,236.8 333.9,236.8 334.6,236.8 335.2,236.8 335.9,236.8 336.6,236.8 337.2,236.8 337.9,237.0 338.6,236.4 339.3,237.0 339.9,237.5 340.6,237.9 341.3,238.1 342.0,237.9 342.6,238.4 343.3,238.3 344.0,238.6 344.7,239.4 345.3,239.6 346.0,239.3 346.7,239.3 347.4,239.1 348.0,239.0 348.7,238.8 349.4,239.1 350.0,238.1 350.7,238.2 351.4,238.1 352.1,237.4 352.7,237.3 353.4,237.3 354.1,237.4 354.8,237.4 355.4,237.5 356.1,237.5 356.8,237.4 357.5,237.1 358.1,237.2 358.8,237.0 359.5,237.3 360.2,237.6 360.8,237.5 361.5,237.5 362.2,237.2 362.8,237.6 363.5,237.7 364.2,237.5 364.9,237.2 365.5,236.5 366.2,235.6 366.9,235.6 367.6,235.5 368.2,235.5 368.9,235.3 369.6,235.6 370.3,235.5 370.9,235.4 371.6,235.4 372.3,235.0 373.0,236.0 373.6,235.1 374.3,234.0 375.0,234.0 375.6,233.9 376.3,233.9 377.0,233.9 377.7,233.6 378.3,233.6 379.0,233.4 379.7,233.5 380.4,233.4 381.0,233.2 381.7,234.0 382.4,234.0 383.1,234.2 383.7,233.7 384.4,234.0 385.1,234.4 385.8,234.5 386.4,234.7 387.1,234.8 387.8,234.6 388.4,234.6 389.1,234.1 389.8,234.2 390.5,234.3 391.1,234.5 391.8,233.9 392.5,234.3 393.2,234.6 393.8,236.2 394.5,237.3 395.2,238.0 395.9,236.1 396.5,235.4 397.2,236.0 397.9,234.2 398.6,235.3 399.2,234.4 399.9,234.1 400.6,234.1 401.2,234.5 401.9,234.6 402.6,234.8 403.3,235.2 403.9,235.8 404.6,236.0 405.3,235.6 406.0,236.3 406.6,236.9 407.3,236.4 408.0,236.2 408.7,236.4 409.3,236.9 410.0,236.7 410.7,239.1 411.3,238.1 412.0,238.1 412.7,237.4 413.4,236.3 414.0,235.4 414.7,234.4 415.4,235.2 416.1,234.7 416.7,235.0 417.4,234.9 418.1,234.9 418.8,234.7 419.4,234.7 420.1,234.7 420.8,234.7 421.5,234.7 422.1,234.7 422.8,234.7 423.5,234.7 424.1,234.7 424.8,234.7 425.5,234.7 426.2,234.7 426.8,234.7 427.5,234.7 428.2,234.7 428.9,234.7 429.5,234.7 430.2,234.7 430.9,234.7 431.6,234.7 432.2,234.7 432.9,234.7 433.6,234.7 434.3,234.7 434.9,234.7 435.6,234.7 436.3,234.7 436.9,234.7 437.6,234.7 438.3,234.7 439.0,234.7 439.6,234.7 440.3,234.7 441.0,234.7 441.7,234.7 442.3,234.7 443.0,234.7 443.7,234.7 444.4,234.7 445.0,234.7 445.7,234.7 446.4,234.7 447.1,234.7 447.7,234.7 448.4,234.7 449.1,234.7 449.7,234.7 450.4,234.7 451.1,234.9 451.8,234.7 452.4,234.5 453.1,235.3 453.8,235.1 454.5,235.1 455.1,234.6 455.8,234.6 456.5,234.5 457.2,234.7 457.8,233.5 458.5,233.4 459.2,233.5 459.9,233.3 460.5,233.6 461.2,233.8 461.9,233.3 462.5,233.0 463.2,233.2 463.9,233.4 464.6,233.4 465.2,233.1 465.9,232.9 466.6,233.1 467.3,233.6 467.9,233.3 468.6,233.4 469.3,233.4 470.0,233.2 470.6,232.8 471.3,232.4 472.0,232.4 472.7,232.5 473.3,232.7 474.0,232.8 474.7,232.5 475.3,233.7 476.0,232.9 476.7,232.4 477.4,232.7 478.0,232.8 478.7,232.6 479.4,232.3 480.1,232.2 480.7,232.1 481.4,233.0 482.1,233.3 482.8,233.8 483.4,233.4 484.1,233.0 484.8,233.1 485.5,233.0 486.1,232.6 486.8,233.4 487.5,232.3 488.1,232.2 488.8,232.0 489.5,231.7 490.2,232.7 490.8,233.2 491.5,232.6 492.2,232.4 492.9,232.1 493.5,232.6 494.2,230.5 494.9,229.4 495.6,230.2 496.2,228.4 496.9,228.6 497.6,228.1 498.3,228.4 498.9,228.4 499.6,228.8 500.3,228.4 500.9,228.0 501.6,229.2 502.3,228.7 503.0,228.2 503.6,228.3 504.3,228.3 505.0,228.4 505.7,228.7 506.3,228.9 507.0,228.3 507.7,228.4 508.4,228.4 509.0,228.4 509.7,227.5 510.4,226.3 511.0,226.2 511.7,226.2 512.4,226.5 513.1,226.3 513.7,226.1 514.4,225.9 515.1,225.7 515.8,226.2 516.4,225.6 517.1,225.4 517.8,225.7 518.5,225.7 519.1,225.7 519.8,225.5 520.5,226.2 521.2,226.0 521.8,226.1 522.5,226.1 523.2,225.6 523.8,225.7 524.5,225.6 525.2,224.5 525.9,225.3 526.5,225.4 527.2,229.9 527.9,230.9 528.6,235.4 529.2,236.0 529.9,237.7 530.6,237.3 531.3,236.5 531.9,237.5 532.6,237.5 533.3,237.5 534.6,237.5 535.3,237.5 536.0,237.5 536.6,237.5 537.3,237.5 538.0,237.5 538.7,237.5 539.3,237.5 540.0,237.5 540.7,237.5 541.4,237.5 542.0,237.5 546.1,237.5 546.8,237.5 547.4,237.5 548.1,237.5 548.8,237.5 549.4,237.5 550.1,237.5 550.8,237.5 551.5,237.5 552.1,237.5 552.8,237.5 553.5,237.5 554.2,237.5 554.8,237.5 555.5,237.5 556.2,237.5 556.9,237.5 557.5,237.5 558.2,237.5 558.9,237.5 559.6,237.5 560.2,237.5 560.9,237.5 561.6,237.5 562.2,237.5 562.9,237.5 563.6,237.5 564.3,238.4 564.9,237.7 565.6,236.7 566.3,235.5 567.0,236.1 567.6,234.8 568.3,234.7 569.0,234.7 569.7,235.6 570.3,235.8 571.0,236.0 571.7,234.3 572.4,234.1 573.0,233.3 573.7,234.1 574.4,233.5 575.0,233.8 575.7,232.5 576.4,231.6 577.1,231.4 577.7,231.1 578.4,230.9 579.1,230.9 579.8,231.2 580.4,231.2 581.1,231.1 581.8,231.2 582.5,231.0 583.1,231.8 583.8,232.9 584.5,232.8 585.2,233.4 585.8,232.5 586.5,232.4 587.2,232.8 587.8,235.8 588.5,234.3 589.2,234.7 589.9,235.1 590.5,235.3 591.2,235.5 591.9,233.2 592.6,236.7 593.2,238.2 593.9,238.3 594.6,238.6 595.3,237.3 595.9,238.0 596.6,238.9 597.3,237.2 598.0,237.6 598.6,238.9 599.3,240.0 600.0,240.7 600.6,240.5 601.3,241.6 602.0,241.9 602.7,240.5 603.3,243.1 604.0,244.1 604.7,246.7 605.4,247.5 606.0,246.6 606.7,244.8 607.4,245.8 608.1,239.7 608.7,239.9 609.4,239.9 610.1,240.6 610.7,240.8 611.4,241.0 612.1,240.3 612.8,241.7 613.4,241.4 614.1,241.0 614.8,241.0 615.5,240.3 616.1,240.6 616.8,238.9 617.5,239.1 618.2,239.1 618.8,238.5 619.5,236.7 620.2,237.3 620.9,238.1 621.5,237.9 622.2,238.9 622.9,238.5 623.5,239.4 624.2,236.6 624.9,238.0 625.6,239.8 626.2,240.4 626.9,240.4 627.6,238.7 628.3,239.0 628.9,240.2 629.6,238.6 630.3,238.9 631.0,238.4 631.6,238.8 632.3,240.7 633.0,239.9 633.7,240.7 634.3,240.4 635.0,240.8 635.7,238.4 636.3,237.4 637.0,237.3 637.7,237.5 638.4,237.7 639.0,238.1 639.7,235.4 640.4,235.0 641.1,236.2 641.7,236.6 642.4,236.3 643.1,235.5 643.8,236.0 644.4,236.3 645.1,236.5 645.8,236.5 646.5,236.5 647.1,236.5 647.8,236.5 648.5,236.5 649.1,236.5 649.8,236.5 650.5,236.5 651.2,236.5 651.8,236.5 652.5,236.5 653.2,236.5 653.9,236.5 654.5,236.5 655.2,236.5 655.9,236.5 656.6,236.5 657.2,236.5 657.9,236.5 658.6,236.5 659.3,236.5 659.9,236.5 660.6,236.5 661.3,236.5 661.9,236.5 662.6,236.5 663.3,236.5 664.0,236.5 664.6,236.5 665.3,236.5 666.0,236.5 666.7,236.5 667.3,236.5 668.0,236.5 668.7,236.5 669.4,236.5 670.0,236.5 670.7,236.5 671.4,236.5 672.1,236.5 672.7,236.5 673.4,236.5 674.1,236.5 674.7,236.5 675.4,236.5 676.1,236.5 676.8,236.5 677.4,236.7 678.1,236.4 678.8,236.0 679.5,236.0 680.1,236.2 680.8,237.5 681.5,237.0 682.2,236.6 682.8,236.4 683.5,236.8 684.2,237.2 684.9,234.7 685.5,235.0 686.2,235.1 686.9,234.9 687.5,235.3 688.2,234.8 688.9,235.0 689.6,235.4 690.2,235.3 690.9,235.3 691.6,235.5 692.3,235.4 692.9,235.7 693.6,236.5 694.3,235.6 695.0,235.4 695.6,235.5 696.3,235.7 697.0,235.6 697.7,236.3 698.3,237.7 699.0,237.1 699.7,238.1 700.3,239.5 701.0,240.9 701.7,240.2 702.4,239.9 703.0,238.8 703.7,239.7 704.4,237.4 705.1,238.5 705.7,238.4 706.4,238.4 707.1,236.8 707.8,237.0 708.4,237.0 709.1,237.9 709.8,238.2 710.4,237.6 711.1,237.6 711.8,237.0 712.5,236.2 713.1,237.1 713.8,237.6 714.5,238.2 715.2,237.8 715.8,237.0 716.5,236.6 717.2,238.4 717.9,238.9 718.5,241.5 719.2,240.6 719.9,238.0 720.6,236.2 721.2,235.1 721.9,238.5 722.6,237.6 723.2,237.1 723.9,236.7 724.6,239.1 725.3,239.1 725.9,239.9 726.6,238.1 727.3,236.8 728.0,237.1 728.6,236.5 729.3,235.4 730.0,235.9 730.7,234.7 731.3,235.7 732.0,235.8 732.7,235.2 733.4,236.6 734.0,237.1 734.7,238.0 735.4,242.1 736.0,244.5 736.7,252.8 737.4,251.6 738.1,250.9 738.7,251.8 739.4,251.4 740.1,253.9 740.8,254.3 741.4,253.9 742.1,254.7 742.8,254.4 743.5,253.6 744.1,253.4 744.8,252.3 745.5,253.2 746.2,253.8 746.8,253.3 747.5,251.6 748.2,250.5 748.8,250.7 749.5,251.5 750.2,252.4 750.9,252.1 751.5,252.8 752.2,252.4 752.9,252.9 753.6,252.1 754.2,255.3 754.9,253.5 755.6,253.7 756.3,253.5 756.9,253.8 757.6,254.2 758.3,254.9 759.0,254.9 759.6,254.9 760.3,254.9 761.0,254.9 761.6,254.9 762.3,254.9 763.0,254.9 763.7,254.9 764.3,254.9 765.0,254.9 765.7,254.9 766.4,254.9 767.0,254.9 767.7,254.9 768.4,254.9 769.1,254.9 769.7,254.9 770.4,254.9 771.1,254.9 771.8,254.9 772.4,254.9 773.1,254.9 773.8,254.9 774.4,254.9 775.1,254.9 775.8,254.9 776.5,254.9 777.1,254.9 777.8,254.9 778.5,254.9 779.2,254.9 779.8,254.9 780.5,254.9 781.2,254.9 781.9,254.9 782.5,254.9 783.2,254.9 783.9,254.9 784.6,254.9 785.2,254.9 785.9,254.9 786.6,254.9 787.2,254.9 787.9,254.9 788.6,254.9 789.3,254.9 789.9,254.9 790.6,255.7 791.3,255.4 792.0,255.5 792.6,256.3 793.3,258.1 794.0,257.5 794.7,258.2 795.3,258.6 796.0,258.8 796.7,259.2 797.4,259.8 798.0,261.8 798.7,263.1 799.4,261.9 800.0,261.6 800.7,261.5 801.4,264.6 802.1,264.6 802.7,263.1 803.4,261.3 804.1,260.2 804.8,260.2 805.4,260.2 806.1,260.5 806.8,260.8 807.5,260.4 808.1,260.6 808.8,261.0 809.5,261.2 810.1,261.9 810.8,261.7 811.5,262.5 812.2,262.6 812.8,262.2 813.5,262.5 814.2,261.8 814.9,261.4 815.5,261.5 816.2,261.3 816.9,261.6 817.6,261.1 818.2,260.9 818.9,261.3 819.6,261.4 820.3,260.8 820.9,260.8 821.6,261.0 822.3,261.4 822.9,262.2 823.6,261.1 824.3,261.7 825.0,262.3 825.6,262.2 826.3,262.8 827.0,262.1 827.7,261.9 828.3,261.5 829.0,260.9 829.7,261.0 830.4,261.9 831.0,261.4 831.7,261.5 832.4,261.5 833.1,261.7 833.7,261.7 834.4,261.7 835.1,261.4 835.7,261.6 836.4,262.5 837.1,265.3 837.8,267.9 838.4,267.6 839.1,268.0 839.8,268.0 840.5,267.3 841.1,267.1 841.8,267.8 842.5,267.7 843.2,267.7 843.8,267.7 844.5,267.2 845.2,267.3 845.9,266.8 846.5,266.8 847.2,266.5 847.9,266.7 848.5,267.2 849.2,266.4 849.9,266.4 850.6,265.0 851.2,266.2 851.9,266.4 852.6,266.3 853.3,266.2 853.9,266.3 854.6,266.3 855.3,267.1 856.0,266.5 856.6,266.4 857.3,266.7 858.0,266.5 858.7,266.5 859.3,265.2 860.0,264.5" fill="none" stroke="#58a6ff" stroke-width="1.4" opacity="0.9"/><polyline points="40.0,209.6 42.7,209.6 42.7,208.4 43.6,208.4 43.6,208.2 45.1,208.2 45.1,208.1 45.1,208.1 45.1,208.0 45.2,208.0 45.2,209.0 46.4,209.0 46.4,210.1 46.5,210.1 46.5,211.3 46.6,211.3 46.6,212.3 46.6,212.3 46.6,213.2 48.7,213.2 48.7,213.1 48.7,213.1 48.7,213.0 53.1,213.0 53.1,212.8 54.5,212.8 54.5,212.6 55.1,212.6 55.1,212.3 55.3,212.3 55.3,212.1 55.7,212.1 55.7,211.8 55.7,211.8 55.7,212.8 55.7,212.8 55.7,212.1 56.5,212.1 56.5,212.0 56.7,212.0 56.7,211.7 56.7,211.7 56.7,211.2 57.5,211.2 57.5,211.1 57.9,211.1 57.9,212.1 57.9,212.1 57.9,213.4 59.0,213.4 59.0,214.7 59.6,214.7 59.6,214.4 60.1,214.4 60.1,214.2 60.5,214.2 60.5,213.8 60.6,213.8 60.6,213.6 60.6,213.6 60.6,215.1 62.4,215.1 62.4,216.2 64.7,216.2 64.7,217.2 66.3,217.2 66.3,217.1 70.5,217.1 70.5,216.9 73.4,216.9 73.4,216.3 73.4,216.3 73.4,216.1 73.4,216.1 73.4,215.5 73.5,215.5 73.5,215.1 73.6,215.1 73.6,213.5 73.6,213.5 73.6,212.6 73.9,212.6 73.9,212.0 73.9,212.0 73.9,211.6 74.0,211.6 74.0,211.4 74.0,211.4 74.0,210.9 74.2,210.9 74.2,210.3 74.2,210.3 74.2,209.9 74.3,209.9 74.3,209.8 74.4,209.8 74.4,211.3 74.4,211.3 74.4,213.1 74.4,213.1 74.4,214.9 74.4,214.9 74.4,216.8 74.5,216.8 74.5,215.7 74.5,215.7 74.5,215.5 74.7,215.5 74.7,215.4 74.7,215.4 74.7,215.1 74.8,215.1 74.8,216.2 74.8,216.2 74.8,215.6 74.8,215.6 74.8,215.5 74.9,215.5 74.9,215.3 74.9,215.3 74.9,216.4 74.9,216.4 74.9,217.4 74.9,217.4 74.9,217.3 75.0,217.3 75.0,217.3 75.1,217.3 75.1,217.1 75.1,217.1 75.1,216.9 75.1,216.9 75.1,216.5 75.1,216.5 75.1,216.5 75.1,216.5 75.1,216.3 75.4,216.3 75.4,217.4 75.4,217.4 75.4,217.2 76.4,217.2 76.4,218.3 76.6,218.3 76.6,219.3 76.6,219.3 76.6,218.8 76.6,218.8 76.6,218.4 76.7,218.4 76.7,218.1 76.9,218.1 76.9,219.6 77.6,219.6 77.6,219.1 78.0,219.1 78.0,218.9 78.6,218.9 78.6,218.8 111.5,218.8 111.5,219.5 113.3,219.5 113.3,219.4 114.6,219.4 114.6,218.8 115.0,218.8 115.0,218.7 115.7,218.7 115.7,218.5 118.1,218.5 118.1,218.3 118.1,218.3 118.1,218.1 118.4,218.1 118.4,217.2 118.8,217.2 118.8,217.1 119.2,217.1 119.2,216.2 119.6,216.2 119.6,216.1 122.4,216.1 122.4,215.8 122.4,215.8 122.4,215.7 122.6,215.7 122.6,215.5 122.6,215.5 122.6,215.4 122.6,215.4 122.6,214.9 122.7,214.9 122.7,214.8 122.8,214.8 122.8,214.7 122.8,214.7 122.8,214.5 122.8,214.5 122.8,214.3 123.0,214.3 123.0,214.2 123.0,214.2 123.0,213.9 123.0,213.9 123.0,213.8 123.5,213.8 123.5,213.6 123.5,213.6 123.5,213.4 123.5,213.4 123.5,213.3 123.9,213.3 123.9,213.1 126.2,213.1 126.2,212.9 127.2,212.9 127.2,214.0 127.2,214.0 127.2,213.9 127.2,213.9 127.2,215.0 127.4,215.0 127.4,216.0 128.3,216.0 128.3,217.1 129.4,217.1 129.4,218.2 131.0,218.2 131.0,217.8 134.6,217.8 134.6,217.4 142.5,217.4 142.5,221.3 154.9,221.3 154.9,221.2 155.4,221.2 155.4,222.7 157.3,222.7 157.3,222.5 159.7,222.5 159.7,226.3 165.7,226.3 165.7,226.2 165.8,226.2 165.8,225.5 172.6,225.5 172.6,226.5 172.9,226.5 172.9,225.8 175.0,225.8 175.0,225.7 183.3,225.7 183.3,225.6 184.1,225.6 184.1,225.4 184.9,225.4 184.9,225.3 185.4,225.3 185.4,225.1 186.5,225.1 186.5,224.7 186.6,224.7 186.6,226.2 186.6,226.2 186.6,230.6 186.7,230.6 186.7,231.9 186.7,231.9 186.7,236.4 188.9,236.4 188.9,236.3 190.4,236.3 190.4,236.2 191.4,236.2 191.4,236.1 191.8,236.1 191.8,235.7 191.8,235.7 191.8,235.5 192.0,235.5 192.0,235.4 225.7,235.4 225.7,235.3 231.9,235.3 231.9,235.1 236.7,235.1 236.7,237.6 236.7,237.6 236.7,237.9 236.7,237.9 236.7,238.3 236.7,238.3 236.7,238.5 236.7,238.5 236.7,238.5 236.7,238.5 236.7,239.1 237.0,239.1 237.0,238.9 238.2,238.9 238.2,238.9 239.9,238.9 239.9,238.8 243.4,238.8 243.4,238.7 244.3,238.7 244.3,238.6 244.8,238.6 244.8,238.4 245.8,238.4 245.8,237.9 247.6,237.9 247.6,237.9 247.6,237.9 247.6,237.9 252.1,237.9 252.1,237.8 252.8,237.8 252.8,237.6 260.6,237.6 260.6,237.6 265.3,237.6 265.3,237.4 265.6,237.4 265.6,237.3 267.4,237.3 267.4,237.2 267.4,237.2 267.4,237.1 267.5,237.1 267.5,237.0 268.7,237.0 268.7,236.9 269.0,236.9 269.0,236.7 271.2,236.7 271.2,236.5 279.5,236.5 279.5,236.3 280.5,236.3 280.5,236.1 282.5,236.1 282.5,236.0 283.7,236.0 283.7,235.9 283.8,235.9 283.8,235.7 283.9,235.7 283.9,235.6 284.3,235.6 284.3,235.5 284.7,235.5 284.7,235.1 284.7,235.1 284.7,235.0 285.4,235.0 285.4,235.3 285.6,235.3 285.6,235.2 290.9,235.2 290.9,235.1 292.0,235.1 292.0,235.0 296.9,235.0 296.9,234.7 299.2,234.7 299.2,234.4 299.2,234.4 299.2,234.1 299.2,234.1 299.2,233.9 299.6,233.9 299.6,234.2 299.7,234.2 299.7,235.2 299.8,235.2 299.8,235.1 299.8,235.1 299.8,235.1 301.6,235.1 301.6,235.0 301.9,235.0 301.9,235.0 302.1,235.0 302.1,234.9 302.4,234.9 302.4,234.9 303.1,234.9 303.1,234.6 303.1,234.6 303.1,234.5 303.1,234.5 303.1,234.4 303.1,234.4 303.1,234.4 303.1,234.4 303.1,234.3 304.2,234.3 304.2,234.3 342.1,234.3 342.1,235.3 346.7,235.3 346.7,235.3 347.8,235.3 347.8,235.2 349.1,235.2 349.1,235.0 351.6,235.0 351.6,235.5 351.7,235.5 351.7,235.5 352.1,235.5 352.1,235.4 352.6,235.4 352.6,235.8 352.7,235.8 352.7,236.0 353.4,236.0 353.4,236.0 353.5,236.0 353.5,236.0 353.5,236.0 353.5,236.0 356.5,236.0 356.5,235.9 358.5,235.9 358.5,235.9 358.9,235.9 358.9,235.8 358.9,235.8 358.9,235.8 359.2,235.8 359.2,235.7 359.9,235.7 359.9,235.5 361.2,235.5 361.2,235.3 365.2,235.3 365.2,235.0 365.2,235.0 365.2,234.8 365.6,234.8 365.6,234.7 365.6,234.7 365.6,234.6 365.7,234.6 365.7,234.5 366.1,234.5 366.1,234.3 367.3,234.3 367.3,234.2 367.8,234.2 367.8,234.1 367.8,234.1 367.8,233.9 367.8,233.9 367.8,233.7 368.9,233.7 368.9,233.6 373.6,233.6 373.6,233.5 373.7,233.5 373.7,233.0 373.7,233.0 373.7,232.6 373.7,232.6 373.7,232.5 376.1,232.5 376.1,232.5 377.7,232.5 377.7,232.3 378.4,232.3 378.4,232.1 378.8,232.1 378.8,232.0 380.5,232.0 380.5,232.0 380.6,232.0 380.6,231.9 380.6,231.9 380.6,231.8 380.6,231.8 380.6,231.7 380.8,231.7 380.8,231.6 384.0,231.6 384.0,231.5 384.0,231.5 384.0,231.4 389.3,231.4 389.3,231.3 389.5,231.3 389.5,231.3 392.3,231.3 392.3,231.2 392.5,231.2 392.5,231.1 394.5,231.1 394.5,232.3 394.9,232.3 394.9,232.6 395.9,232.6 395.9,232.5 396.4,232.5 396.4,232.4 396.4,232.4 396.4,232.3 397.9,232.3 397.9,232.1 399.4,232.1 399.4,232.1 401.5,232.1 401.5,232.0 410.5,232.0 410.5,233.1 410.5,233.1 410.5,233.5 410.6,233.5 410.6,233.9 411.2,233.9 411.2,233.8 411.8,233.8 411.8,233.7 411.8,233.7 411.8,233.6 412.8,233.6 412.8,233.5 413.0,233.5 413.0,233.3 413.0,233.3 413.0,233.2 413.0,233.2 413.0,233.0 414.3,233.0 414.3,232.9 414.3,232.9 414.3,232.8 414.3,232.8 414.3,232.6 414.7,232.6 414.7,232.4 415.3,232.4 415.3,232.3 451.1,232.3 451.1,232.4 451.1,232.4 451.1,232.7 451.1,232.7 451.1,232.8 451.3,232.8 451.3,232.8 451.3,232.8 451.3,233.3 451.8,233.3 451.8,233.0 453.1,233.0 453.1,232.9 454.0,232.9 454.0,232.8 457.4,232.8 457.4,232.6 457.7,232.6 457.7,232.5 457.7,232.5 457.7,232.4 457.8,232.4 457.8,232.3 457.8,232.3 457.8,232.2 458.3,232.2 458.3,232.1 458.6,232.1 458.6,232.0 459.7,232.0 459.7,231.9 461.9,231.9 461.9,231.8 462.0,231.8 462.0,231.7 462.1,231.7 462.1,231.6 464.7,231.6 464.7,231.5 466.9,231.5 466.9,231.4 469.2,231.4 469.2,231.3 470.4,231.3 470.4,231.3 471.0,231.3 471.0,231.2 472.6,231.2 472.6,231.1 473.3,231.1 473.3,231.0 473.9,231.0 473.9,230.7 474.8,230.7 474.8,230.6 475.8,230.6 475.8,230.5 476.8,230.5 476.8,230.4 478.0,230.4 478.0,230.2 478.0,230.2 478.0,230.0 478.6,230.0 478.6,229.8 478.6,229.8 478.6,229.7 482.9,229.7 482.9,229.7 487.3,229.7 487.3,229.4 487.3,229.4 487.3,229.2 489.8,229.2 489.8,229.1 493.8,229.1 493.8,229.0 494.1,229.0 494.1,228.9 494.5,228.9 494.5,228.8 494.5,228.8 494.5,228.7 494.5,228.7 494.5,228.6 494.7,228.6 494.7,228.3 494.7,228.3 494.7,228.0 495.1,228.0 495.1,227.5 496.4,227.5 496.4,227.2 496.5,227.2 496.5,226.8 497.3,226.8 497.3,226.7 499.3,226.7 499.3,226.5 501.4,226.5 501.4,226.1 502.5,226.1 502.5,226.0 503.2,226.0 503.2,225.9 509.2,225.9 509.2,225.8 509.4,225.8 509.4,225.5 509.5,225.5 509.5,225.4 509.9,225.4 509.9,225.3 510.0,225.3 510.0,225.2 510.1,225.2 510.1,225.2 510.4,225.2 510.4,224.9 510.4,224.9 510.4,224.8 510.5,224.8 510.5,224.6 510.5,224.6 510.5,224.6 510.5,224.6 510.5,224.5 510.5,224.5 510.5,224.4 510.5,224.4 510.5,224.2 511.5,224.2 511.5,224.1 512.2,224.1 512.2,224.0 513.6,224.0 513.6,223.8 513.6,223.8 513.6,223.7 516.3,223.7 516.3,223.6 517.5,223.6 517.5,223.4 519.2,223.4 519.2,223.2 519.3,223.2 519.3,223.1 521.6,223.1 521.6,222.8 523.7,222.8 523.7,222.6 524.7,222.6 524.7,222.4 525.7,222.4 525.7,222.3 527.1,222.3 527.1,222.2 527.1,222.2 527.1,221.7 527.1,221.7 527.1,221.5 527.1,221.5 527.1,220.8 527.3,220.8 527.3,221.6 527.4,221.6 527.4,224.2 527.5,224.2 527.5,223.9 527.7,223.9 527.7,223.4 527.7,223.4 527.7,223.1 527.7,223.1 527.7,222.7 528.5,222.7 528.5,224.5 528.6,224.5 528.6,227.0 529.5,227.0 529.5,229.6 531.6,229.6 531.6,230.4 566.3,230.4 566.3,230.3 566.3,230.3 566.3,230.2 566.8,230.2 566.8,230.1 567.7,230.1 567.7,229.9 571.2,229.9 571.2,229.7 571.6,229.7 571.6,229.3 571.6,229.3 571.6,229.2 574.6,229.2 574.6,229.0 575.2,229.0 575.2,228.8 575.6,228.8 575.6,229.4 575.6,229.4 575.6,230.1 575.8,230.1 575.8,229.7 575.9,229.7 575.9,229.4 576.0,229.4 576.0,229.3 576.1,229.3 576.1,228.9 576.2,228.9 576.2,228.8 576.2,228.8 576.2,228.6 576.2,228.6 576.2,228.9 577.8,228.9 577.8,228.7 580.1,228.7 580.1,228.4 583.3,228.4 583.3,228.3 586.8,228.3 586.8,228.0 599.5,228.0 599.5,230.3 601.8,230.3 601.8,231.2 602.4,231.2 602.4,232.0 603.1,232.0 603.1,234.0 603.9,234.0 603.9,233.9 604.0,233.9 604.0,236.2 604.2,236.2 604.2,238.5 605.2,238.5 605.2,240.8 606.6,240.8 606.6,240.6 607.5,240.6 607.5,239.8 607.5,239.8 607.5,239.0 607.5,239.0 607.5,238.3 607.5,238.3 607.5,237.5 607.5,237.5 607.5,237.3 607.5,237.3 607.5,237.1 607.8,237.1 607.8,236.8 607.9,236.8 607.9,236.4 608.6,236.4 608.6,236.3 614.8,236.3 614.8,236.0 616.4,236.0 616.4,235.7 617.9,235.7 617.9,235.3 617.9,235.3 617.9,235.1 618.8,235.1 618.8,234.8 619.1,234.8 619.1,234.0 619.1,234.0 619.1,233.6 619.4,233.6 619.4,233.3 619.4,233.3 619.4,233.1 619.4,233.1 619.4,232.7 620.1,232.7 620.1,232.4 623.1,232.4 623.1,232.2 623.1,232.2 623.1,231.8 623.1,231.8 623.1,231.7 623.1,231.7 623.1,231.5 623.3,231.5 623.3,231.3 623.3,231.3 623.3,231.0 623.9,231.0 623.9,230.7 624.7,230.7 624.7,230.7 624.8,230.7 624.8,230.5 625.6,230.5 625.6,230.2 627.6,230.2 627.6,230.0 627.8,230.0 627.8,229.8 630.7,229.8 630.7,229.7 636.2,229.7 636.2,229.3 638.3,229.3 638.3,229.1 639.2,229.1 639.2,228.3 639.2,228.3 639.2,227.9 639.8,227.9 639.8,227.4 639.9,227.4 639.9,226.6 641.5,226.6 641.5,226.3 677.4,226.3 677.4,227.3 677.5,227.3 677.5,228.8 677.6,228.8 677.6,230.0 677.7,230.0 677.7,231.8 678.9,231.8 678.9,231.7 679.6,231.7 679.6,231.5 679.7,231.5 679.7,231.3 684.7,231.3 684.7,231.0 684.9,231.0 684.9,230.3 684.9,230.3 684.9,230.0 684.9,230.0 684.9,229.7 688.3,229.7 688.3,230.6 688.4,230.6 688.4,231.2 690.4,231.2 690.4,231.9 690.7,231.9 690.7,231.8 694.5,231.8 694.5,231.6 697.3,231.6 697.3,231.2 699.6,231.2 699.6,230.9 702.7,230.9 702.7,230.6 704.3,230.6 704.3,230.6 704.6,230.6 704.6,229.9 705.3,229.9 705.3,231.9 705.5,231.9 705.5,231.4 705.7,231.4 705.7,231.1 706.8,231.1 706.8,230.6 712.0,230.6 712.0,230.4 715.9,230.4 715.9,230.1 718.4,230.1 718.4,229.8 719.6,229.8 719.6,229.3 720.6,229.3 720.6,229.0 720.9,229.0 720.9,228.8 720.9,228.8 720.9,228.7 721.1,228.7 721.1,228.6 721.4,228.6 721.4,228.4 721.6,228.4 721.6,228.2 721.8,228.2 721.8,227.9 721.9,227.9 721.9,228.7 722.0,228.7 722.0,228.6 722.0,228.6 722.0,228.4 722.1,228.4 722.1,228.2 722.1,228.2 722.1,227.9 722.5,227.9 722.5,227.7 726.5,227.7 726.5,229.9 726.8,229.9 726.8,229.8 729.2,229.8 729.2,229.7 729.2,229.7 729.2,229.3 729.9,229.3 729.9,229.1 730.7,229.1 730.7,228.9 732.9,228.9 732.9,228.8 734.9,228.8 734.9,229.6 734.9,229.6 734.9,230.3 734.9,230.3 734.9,231.0 736.2,231.0 736.2,234.5 736.2,234.5 736.2,237.9 736.2,237.9 736.2,241.0 736.2,241.0 736.2,242.7 736.2,242.7 736.2,243.4 736.2,243.4 736.2,244.1 736.2,244.1 736.2,244.8 736.4,244.8 736.4,244.6 736.8,244.6 736.8,244.4 737.8,244.4 737.8,244.2 739.2,244.2 739.2,244.2 741.8,244.2 741.8,247.1 744.0,247.1 744.0,247.0 744.8,247.0 744.8,247.0 746.2,247.0 746.2,246.9 747.8,246.9 747.8,246.8 747.9,246.8 747.9,246.4 748.0,246.4 748.0,246.1 748.4,246.1 748.4,245.8 751.6,245.8 751.6,245.7 752.4,245.7 752.4,247.3 752.4,247.3 752.4,248.3 752.4,248.3 752.4,248.1 752.5,248.1 752.5,247.7 752.6,247.7 752.6,247.5 752.7,247.5 752.7,247.1 753.2,247.1 753.2,246.9 754.1,246.9 754.1,246.9 791.2,246.9 791.2,246.8 792.3,246.8 792.3,247.9 794.8,247.9 794.8,249.4 796.7,249.4 796.7,251.6 798.6,251.6 798.6,252.9 798.9,252.9 798.9,252.7 798.9,252.7 798.9,252.4 800.1,252.4 800.1,253.2 801.0,253.2 801.0,255.2 801.0,255.2 801.0,256.3 802.1,256.3 802.1,256.2 802.4,256.2 802.4,256.2 802.5,256.2 802.5,256.1 803.6,256.1 803.6,255.9 803.9,255.9 803.9,255.8 803.9,255.8 803.9,255.4 804.0,255.4 804.0,255.2 805.3,255.2 805.3,255.0 809.1,255.0 809.1,254.9 811.3,254.9 811.3,254.8 814.0,254.8 814.0,254.7 814.1,254.7 814.1,254.6 814.3,254.6 814.3,254.4 815.3,254.4 815.3,254.3 816.4,254.3 816.4,254.2 817.0,254.2 817.0,254.1 817.3,254.1 817.3,253.9 818.0,253.9 818.0,253.9 818.4,253.9 818.4,253.8 829.8,253.8 829.8,253.8 836.4,253.8 836.4,254.3 836.9,254.3 836.9,255.7 837.1,255.7 837.1,257.1 837.1,257.1 837.1,256.8 837.3,256.8 837.3,258.8 837.3,258.8 837.3,260.5 837.3,260.5 837.3,262.5 837.4,262.5 837.4,262.2 837.7,262.2 837.7,262.7 837.8,262.7 837.8,262.6 838.2,262.6 838.2,262.5 840.2,262.5 840.2,262.4 840.5,262.4 840.5,262.3 841.0,262.3 841.0,262.2 841.0,262.2 841.0,262.2 841.5,262.2 841.5,262.0 841.8,262.0 841.8,262.0 843.2,262.0 843.2,261.9 845.3,261.9 845.3,261.8 845.4,261.8 845.4,261.5 845.7,261.5 845.7,261.3 846.5,261.3 846.5,261.2 847.1,261.2 847.1,261.1 848.0,261.1 848.0,261.1 849.3,261.1 849.3,260.8 849.4,260.8 849.4,260.4 850.3,260.4 850.3,260.2 850.5,260.2 850.5,260.0 851.5,260.0 851.5,260.6 852.2,260.6 852.2,260.5 852.5,260.5 852.5,260.4 852.5,260.4 852.5,260.3 857.6,260.3 857.6,260.6 857.7,260.6 857.7,260.5 857.8,260.5 857.8,260.5 858.9,260.5 858.9,260.4 859.1,260.4 859.1,260.8 859.1,260.8 859.1,260.0 859.1,260.0 859.1,259.8 859.2,259.8 859.2,259.6 859.6,259.6 859.6,260.0 860.0,260.0 860.0,260.0" fill="none" stroke="#f85149" stroke-width="2.5"/><circle cx="860.0" cy="260.0" r="4" fill="#f85149"/><circle cx="860.0" cy="264.5" r="3" fill="#58a6ff"/><text x="860" y="203" font-size="10" text-anchor="end" fill="#7d8590"><tspan fill="#f85149">━ realized</tspan>  <tspan fill="#58a6ff">─ NAV incl. open (hourly)</tspan></text><text x="40" y="290" font-size="11" fill="#6e7681">range-sized wide-stop ratchet · engage +8.5 → lock +6 → trail 2.5 · poppers · 15%/trade · OANDA LIVE — real money · broker-verified · updated 2026-09-18 04:15 UTC</text></svg>
